<svg width="512" height="512" viewBox="0 0 512 512" fill="none" xmlns="http://www.w3.org/2000/svg">
<g clip-path="url(#clip0_518_30)">
<path d="M302 49.0001C305.277 50.687 307.45 52.9007 309.117 56.2299C310.184 59.5766 310.456 62.6289 310.696 66.1355C310.747 66.8427 310.798 67.5499 310.85 68.2785C311.017 70.6416 311.173 73.0053 311.329 75.3692C311.446 77.0663 311.565 78.7633 311.684 80.4603C312.006 85.0651 312.317 89.6705 312.626 94.2761C312.951 99.0962 313.286 103.916 313.619 108.735C314.177 116.828 314.73 124.922 315.278 133.016C316.051 144.43 316.835 155.842 317.622 167.255C318.166 175.161 318.708 183.067 319.249 190.974C319.38 192.891 319.511 194.807 319.643 196.724C320.017 202.189 320.39 207.654 320.76 213.119C320.872 214.774 320.985 216.43 321.098 218.085C321.253 220.345 321.406 222.605 321.558 224.865C321.644 226.129 321.73 227.394 321.818 228.697C321.971 231.475 322.037 234.219 322 237C323.12 236.984 324.239 236.969 325.393 236.952C329.564 236.898 333.735 236.864 337.906 236.835C339.708 236.82 341.51 236.8 343.312 236.774C345.909 236.737 348.505 236.72 351.102 236.707C352.302 236.684 352.302 236.684 353.527 236.66C359.113 236.659 363.363 237.594 367.645 241.5C371.539 246.501 372.125 249.601 372.12 255.853C372.122 256.904 372.122 256.904 372.123 257.976C372.125 260.33 372.119 262.684 372.114 265.038C372.113 266.723 372.113 268.408 372.114 270.093C372.114 274.674 372.108 279.254 372.101 283.834C372.095 288.619 372.095 293.403 372.093 298.188C372.09 307.251 372.082 316.314 372.072 325.377C372.061 335.693 372.055 346.01 372.05 356.327C372.04 377.551 372.022 398.776 372 420C381.24 419.67 390.48 419.34 400 419C399.34 418.34 398.68 417.68 398 417C397.434 415.012 397.434 415.012 396.982 412.53C396.72 411.124 396.72 411.124 396.453 409.69C396.27 408.662 396.087 407.634 395.898 406.574C395.701 405.5 395.503 404.425 395.299 403.318C394.65 399.776 394.012 396.232 393.375 392.688C392.931 390.243 392.486 387.799 392.042 385.354C391.133 380.352 390.229 375.35 389.328 370.346C388.284 364.556 387.222 358.77 386.148 352.986C385.393 348.909 384.646 344.83 383.902 340.751C383.554 338.853 383.203 336.955 382.848 335.058C378.848 313.615 378.848 313.615 380 306C382.635 302.267 384.606 300.832 389 300C390.395 299.909 391.794 299.865 393.192 299.86C394.021 299.854 394.849 299.848 395.703 299.842C396.603 299.841 397.503 299.84 398.431 299.839C399.386 299.834 400.341 299.829 401.325 299.824C404.483 299.809 407.642 299.802 410.801 299.797C412.998 299.791 415.195 299.785 417.392 299.78C422 299.769 426.607 299.763 431.215 299.76C437.113 299.754 443.01 299.73 448.908 299.702C453.447 299.683 457.987 299.678 462.526 299.677C464.7 299.674 466.874 299.665 469.048 299.652C472.092 299.635 475.136 299.637 478.181 299.644C479.075 299.634 479.969 299.625 480.891 299.616C487.135 299.657 492.386 300.386 497 305C500.429 315.286 495.132 330.234 493.254 340.68C492.879 342.782 492.504 344.884 492.129 346.986C491.346 351.373 490.56 355.758 489.771 360.144C488.761 365.761 487.76 371.38 486.762 377C485.991 381.333 485.215 385.665 484.438 389.997C484.067 392.069 483.697 394.141 483.329 396.214C482.815 399.106 482.294 401.996 481.772 404.886C481.546 406.166 481.546 406.166 481.317 407.471C480.575 411.533 479.741 415.221 478 419C479.039 419.037 480.078 419.075 481.148 419.113C500.54 419.954 500.54 419.954 506.125 424.871C513.21 432.656 512.284 440.622 512.35 450.614C512.367 452.451 512.394 454.288 512.432 456.125C512.487 458.779 512.509 461.432 512.523 464.086C512.546 464.904 512.569 465.722 512.592 466.564C512.576 470.882 512.41 472.489 509.611 475.976C504.43 479.993 500.107 480.274 493.688 480.125C492.947 480.116 492.206 480.107 491.443 480.098C489.629 480.074 487.814 480.038 486 480C485.905 478.836 485.905 478.836 485.809 477.649C484.669 467.593 481.504 457.206 474 450C474 449.34 474 448.68 474 448C473.412 447.729 472.824 447.459 472.219 447.18C470.029 446.015 468.387 444.723 466.5 443.125C458.064 436.748 447.421 434.68 437 435C426.502 436.459 418.167 439.573 410.445 446.828C409 448 409 448 407 448C406.731 448.565 406.461 449.129 406.184 449.711C404.939 452.118 403.523 454.344 402.063 456.625C397.453 464.269 396.107 471.148 395 480C378.17 480 361.34 480 344 480C343.34 476.04 342.68 472.08 342 468C337.318 455.459 329.851 445.061 317.563 439.125C305.505 434.182 293.674 433.731 281.25 438.063C270.04 442.836 261.825 450.618 256.754 461.731C254.462 467.683 253.036 473.715 252 480C249.124 480.081 246.251 480.141 243.375 480.188C242.163 480.225 242.163 480.225 240.926 480.264C235.008 480.336 230.88 479.383 226.188 475.5C223.811 472.498 223.876 469.554 223.88 465.894C223.878 464.31 223.878 464.31 223.876 462.694C223.879 461.536 223.883 460.378 223.887 459.185C223.886 457.965 223.886 456.746 223.886 455.489C223.887 452.144 223.892 448.8 223.899 445.455C223.905 441.959 223.905 438.464 223.907 434.969C223.91 428.35 223.918 421.73 223.928 415.111C223.939 407.576 223.945 400.04 223.95 392.504C223.96 377.003 223.978 361.502 224 346C223.412 346.009 222.824 346.018 222.218 346.027C216.086 346.116 209.954 346.176 203.822 346.22C201.535 346.24 199.247 346.267 196.96 346.302C193.669 346.35 190.378 346.373 187.086 346.391C185.558 346.422 185.558 346.422 183.998 346.453C177.996 346.455 174.579 345.99 170 342C167.652 339.012 167.585 335.781 167.676 332.031C168.21 328.685 169.869 326.558 172 324C175.243 321.838 176.101 321.754 179.839 321.773C180.819 321.773 181.8 321.773 182.811 321.773C184.395 321.789 184.395 321.789 186.012 321.805C187.095 321.808 188.178 321.81 189.295 321.813C192.759 321.825 196.223 321.85 199.688 321.875C202.035 321.885 204.382 321.894 206.729 321.902C212.486 321.925 218.243 321.958 224 322C223.984 321.246 223.969 320.491 223.953 319.714C223.812 312.565 223.706 305.417 223.637 298.267C223.601 294.592 223.552 290.918 223.472 287.244C223.395 283.69 223.354 280.138 223.336 276.584C223.317 274.584 223.262 272.585 223.207 270.586C223.204 262.751 224.285 258.133 229.341 252.05C231.718 249.113 232.471 246.509 233.438 242.875C233.746 241.759 234.054 240.642 234.371 239.492C234.579 238.67 234.786 237.847 235 237C237.97 237 240.94 237 244 237C241.36 226.11 238.72 215.22 236 204C233.525 204.99 233.525 204.99 231 206C227.362 206.63 225.059 206.745 221.973 204.574C221.26 203.972 220.547 203.37 219.813 202.75C211.278 195.544 200.098 194.248 189.352 192.711C188.095 192.522 186.839 192.332 185.545 192.137C182.244 191.641 178.942 191.153 175.639 190.67C170.972 189.987 166.306 189.292 161.641 188.592C159.166 188.221 156.691 187.855 154.215 187.496C153.093 187.329 151.971 187.162 150.815 186.99C149.834 186.846 148.853 186.703 147.843 186.555C143.263 185.661 139.143 184.841 136.105 181.129C135.63 180.56 135.154 179.992 134.663 179.406C134.176 178.797 133.689 178.189 133.188 177.563C132.408 176.62 132.408 176.62 131.612 175.659C130.063 173.782 128.531 171.892 127 170C126.188 169.015 125.376 168.03 124.539 167.016C121.544 163.379 118.579 159.718 115.621 156.051C114.839 155.085 114.056 154.12 113.25 153.125C112.554 152.261 111.858 151.398 111.141 150.508C108.884 147.864 106.488 145.427 104 143C105.707 146.709 107.416 150.417 109.125 154.125C109.653 155.271 110.18 156.417 110.724 157.598C113.757 164.18 116.818 170.748 119.914 177.301C120.878 179.345 121.841 181.39 122.804 183.435C123.434 184.769 124.066 186.102 124.7 187.434C125.592 189.306 126.476 191.182 127.359 193.059C127.87 194.134 128.38 195.21 128.905 196.318C130 199 130 199 130 202C130.635 202.05 131.27 202.099 131.925 202.15C139.567 202.79 147.118 203.818 154.699 204.961C155.974 205.152 157.249 205.343 158.563 205.541C161.242 205.943 163.92 206.349 166.598 206.756C170.009 207.274 173.422 207.781 176.835 208.285C180.124 208.774 183.412 209.274 186.699 209.774C188.521 210.041 188.521 210.041 190.38 210.314C199.937 211.789 207.339 213.14 213.59 220.957C217.007 225.907 217.735 231.085 217 237C214.92 243.35 211.817 248.262 206.063 251.813C199.334 254.422 193.82 253.802 186.855 252.742C185.865 252.599 184.874 252.456 183.854 252.308C180.63 251.84 177.409 251.358 174.188 250.875C171.968 250.548 169.748 250.221 167.529 249.895C163.094 249.243 158.66 248.584 154.227 247.922C149.545 247.225 144.861 246.549 140.173 245.891C137.173 245.469 134.175 245.039 131.176 244.606C129.19 244.322 127.203 244.048 125.216 243.775C106.338 240.996 106.338 240.996 100.695 235.02C96.9887 230.024 94.4805 224.306 91.875 218.688C91.3174 217.507 90.7597 216.327 90.1851 215.11C88.4408 211.414 86.719 207.708 85 204C84.1812 202.239 84.1812 202.239 83.3457 200.442C80.3127 193.912 77.3014 187.372 74.2998 180.827C71.5617 174.872 68.7817 168.936 66 163C67.4382 170.858 68.9591 178.7 70.5119 186.537C70.8564 188.275 71.1999 190.014 71.5428 191.753C72.767 197.951 74.0163 204.143 75.2899 210.331C75.7192 212.432 76.1419 214.534 76.5578 216.638C79.4554 231.254 81.8199 243.013 94.3633 252.313C101.719 257.02 109.439 258.763 118 260C119.355 263.722 118.617 266.171 117.496 269.902C117.004 271.609 117.004 271.609 116.502 273.35C115.793 275.739 115.08 278.127 114.361 280.514C114.035 281.653 113.708 282.792 113.371 283.965C113.061 285.003 112.751 286.04 112.431 287.109C111.657 292.299 114.524 296.12 116.984 300.551C117.583 301.63 118.181 302.709 118.798 303.821C119.449 304.985 120.099 306.149 120.75 307.313C121.081 307.907 121.412 308.501 121.753 309.113C127.068 318.654 132.525 328.105 138.051 337.526C141.691 343.738 145.293 349.969 148.813 356.25C149.227 356.983 149.642 357.716 150.07 358.471C157.877 372.505 153.166 390.591 151.48 405.832C151.218 408.238 150.956 410.644 150.695 413.05C150.147 418.071 149.594 423.091 149.038 428.111C148.327 434.533 147.631 440.957 146.94 447.381C146.405 452.341 145.859 457.301 145.311 462.259C145.05 464.628 144.793 466.996 144.54 469.365C144.184 472.675 143.815 475.984 143.442 479.292C143.341 480.262 143.239 481.232 143.135 482.232C142.096 491.219 139.884 498.778 133 505C126.548 510.099 118.881 509.893 111 509C104.737 507.325 100.512 503.339 97 498C90.867 487.076 94.5252 472.711 95.852 460.889C96.1936 457.845 96.5277 454.8 96.8601 451.755C97.5668 445.294 98.2831 438.835 99 432.375C99.8313 424.877 100.659 417.378 101.478 409.879C101.807 406.891 102.141 403.904 102.475 400.917C102.678 399.073 102.88 397.229 103.082 395.384C103.176 394.564 103.269 393.744 103.365 392.9C104.733 381.459 104.733 381.459 100.992 370.875C100.342 369.769 99.6922 368.663 99.0225 367.524C98.3068 366.349 97.591 365.175 96.875 364C96.1414 362.764 95.41 361.526 94.6807 360.287C93.1875 357.752 91.6866 355.222 90.1807 352.695C86.9282 347.212 83.8423 341.637 80.75 336.063C75.0114 325.776 69.1924 315.538 63.3311 305.321C61.2999 301.779 59.2751 298.233 57.25 294.688C56.1667 292.792 55.0834 290.896 54 289C56.2603 300.404 58.8567 311.708 61.6368 322.996C61.9669 324.34 62.2971 325.684 62.6273 327.028C63.9902 332.57 65.3566 338.111 66.7356 343.649C67.5911 347.086 68.4374 350.525 69.2782 353.966C69.7463 355.871 70.2242 357.773 70.7024 359.675C70.9897 360.854 71.277 362.033 71.573 363.248C71.8252 364.265 72.0774 365.283 72.3372 366.331C73.9867 375.462 74.1239 383.976 72.876 393.15C72.7444 394.192 72.6128 395.234 72.4773 396.308C72.0441 399.712 71.593 403.114 71.1407 406.516C70.8317 408.901 70.5236 411.286 70.2163 413.671C69.5718 418.651 68.9186 423.63 68.2588 428.608C67.4153 434.977 66.5917 441.348 65.7744 447.72C65.1416 452.639 64.4994 457.556 63.8542 462.473C63.5469 464.821 63.2423 467.17 62.9405 469.52C62.517 472.804 62.081 476.086 61.6416 479.368C61.5199 480.331 61.3982 481.293 61.2729 482.284C59.9336 492.081 57.2884 500.031 49.3243 506.324C43.1104 510.116 36.0326 509.79 29 509C22.265 507.27 17.9244 502.544 14 497C8.27714 486.052 13.0649 469.25 14.625 457.547C14.8949 455.476 15.1639 453.405 15.4322 451.333C16.136 445.911 16.848 440.489 17.5628 435.068C18.708 426.378 19.8455 417.688 20.9739 408.997C21.3682 405.974 21.7691 402.952 22.1704 399.93C22.4134 398.069 22.6561 396.208 22.8985 394.347C23.0107 393.515 23.1229 392.684 23.2385 391.828C24.3766 382.984 23.9687 375.692 21.7969 367.074C21.5628 366.114 21.3287 365.153 21.0876 364.163C20.5807 362.088 20.0698 360.013 19.5553 357.939C18.7389 354.643 17.9355 351.344 17.1358 348.044C14.8607 338.664 12.5658 329.29 10.2539 319.92C8.8378 314.176 7.43979 308.428 6.0524 302.677C5.52346 300.5 4.98773 298.325 4.44474 296.152C0.503555 280.371 -2.40264 265.957 2.21878 249.938C2.46436 249.023 2.70994 248.107 2.96296 247.165C3.78948 244.104 4.64453 241.053 5.50003 238C6.10646 235.781 6.71104 233.561 7.314 231.341C8.5121 226.94 9.7177 222.542 10.9325 218.147C13.7715 207.872 16.551 197.581 19.3265 187.289C21.4838 179.294 23.6495 171.301 25.8144 163.307C26.6231 160.32 27.4304 157.332 28.2376 154.344C29.5254 149.579 30.8198 144.817 32.1188 140.055C32.6009 138.284 33.081 136.513 33.5588 134.741C41.2291 106.313 41.2291 106.313 51.9375 99.1876C64.4424 92.0014 76.5838 95.5408 89.625 99.0626C91.1825 99.4749 92.7401 99.8866 94.2979 100.298C98.8711 101.511 103.436 102.752 108 104C109.273 104.346 110.545 104.692 111.856 105.049C115.159 105.954 118.456 106.877 121.75 107.813C122.7 108.078 123.649 108.343 124.627 108.616C129.932 110.164 134.319 112.057 139 115C139.846 115.516 140.691 116.031 141.563 116.563C147.689 122.689 150.897 130.465 151.25 139.027C151.18 145.084 149.557 150.744 148 156.563C147.714 157.667 147.428 158.771 147.133 159.908C146.432 162.608 145.72 165.305 145 168C158.419 168.269 171.763 167.533 185.156 166.773C188.888 166.562 192.62 166.358 196.352 166.154C198.753 166.021 201.154 165.888 203.555 165.754C204.656 165.694 205.757 165.633 206.892 165.571C213.282 165.205 219.638 164.699 226 164C225.839 163.344 225.679 162.687 225.513 162.011C223.836 155.15 222.166 148.287 220.501 141.423C219.879 138.865 219.255 136.307 218.63 133.75C217.728 130.065 216.834 126.379 215.941 122.691C215.523 120.989 215.523 120.989 215.095 119.253C211.245 103.265 211.245 103.265 213.125 97.6251C216.041 93.5433 218.624 92.3503 223.438 91.1251C227.68 90.9762 229.516 91.6001 233 94.0001C237.172 99.1227 238.44 104.459 239.945 110.813C240.211 111.892 240.476 112.971 240.75 114.083C241.625 117.648 242.482 121.216 243.34 124.785C243.949 127.283 244.559 129.78 245.17 132.276C246.614 138.188 248.048 144.103 249.476 150.018C251.083 156.669 252.703 163.316 254.324 169.963C257.651 183.6 260.964 197.241 264.25 210.888C264.754 212.979 265.259 215.07 265.764 217.16C266.48 220.123 267.193 223.085 267.905 226.049C268.118 226.931 268.332 227.813 268.552 228.722C270 234.771 270 234.771 270 237C278.91 237 287.82 237 297 237C296.719 233.892 296.438 230.783 296.149 227.581C294.842 212.74 293.813 197.88 292.778 183.018C292.615 180.682 292.452 178.346 292.288 176.01C291.716 167.825 291.145 159.641 290.577 151.456C290.05 143.876 289.519 136.296 288.985 128.717C288.523 122.154 288.065 115.592 287.609 109.029C287.338 105.132 287.066 101.236 286.791 97.3398C286.532 93.684 286.278 90.0279 286.027 86.3715C285.892 84.4143 285.752 82.4574 285.612 80.5005C285.215 74.6432 284.898 68.7864 284.757 62.917C284.73 61.8977 284.704 60.8785 284.676 59.8283C285.165 55.56 286.891 52.9463 290.125 50.1876C294.171 48.5166 297.689 48.1881 302 49.0001ZM102 139C103 141 103 141 103 141L102 139ZM64 158C65 160 65 160 65 160L64 158Z" fill="url(#paint0_radial_518_30)"/>
<path d="M152.648 10.1721C162.461 17.8005 168.557 27.4344 170.41 39.719C171.864 52.6838 169.224 64.7909 161.25 75.2502C152.983 84.9609 141.994 91.1719 129.125 92.2385C117.613 92.5119 107.299 89.9426 98 83.0002C96.9894 82.2783 95.9788 81.5565 94.9375 80.8127C86.3815 73.3291 81.533 62.6988 80.125 51.5627C79.4157 39.435 82.8621 28.7337 90 19.0002C90.7219 18.0102 91.4438 17.0202 92.1875 16.0002C107.358 -1.66803 134.148 -1.75953 152.648 10.1721Z" fill="url(#paint1_radial_518_30)"/>
<path d="M316.375 455.875C323.285 461.564 327.303 468.252 328.391 477.222C328.729 487.558 326.003 494.646 319 502.207C311.842 508.624 304.55 510.38 295.168 510.277C287.148 509.575 280.375 505.938 275 500C269.575 493.176 267.66 486.222 268.062 477.562C269.041 469.356 272.625 462.313 279 457C279.513 456.559 280.026 456.118 280.555 455.664C290.932 447.39 305.841 448.264 316.375 455.875ZM291 473C288.392 476.586 287.891 478.209 288.5 482.625C290.191 486.429 291.393 487.95 295 490C298.567 490.52 300.469 490.241 303.75 488.75C307.11 486.136 307.804 484.289 308.437 480.125C307.829 475.782 306.172 473.965 303 471C298.133 469.239 295.211 470.099 291 473Z" fill="url(#paint2_radial_518_30)"/>
<path d="M457.187 454.688C464.641 460.816 469.379 466.775 470.348 476.488C470.74 486.512 469.099 493.287 462.5 500.875C461.675 501.576 460.85 502.278 460 503C458.855 504.052 458.855 504.052 457.687 505.125C450.25 510.314 442.874 510.959 434 510C425.302 507.781 419.4 503.541 414.687 495.875C410.065 487.892 409.735 479.045 411.613 470.07C414.14 462.925 418.764 457.436 425.344 453.653C436.265 448.574 446.539 449.05 457.187 454.688ZM433 473C430.541 476.689 430.199 479.719 431 484C433.529 487.602 435.238 488.765 439.437 490.063C443.832 489.986 445.663 488.781 449 486C450.613 482.774 450.588 479.489 450 476C447.602 472.685 445.929 471.317 442.062 470C438.253 470 436.195 470.967 433 473Z" fill="url(#paint3_radial_518_30)"/>
</g>
<defs>
<radialGradient id="paint0_radial_518_30" cx="0" cy="0" r="1" gradientUnits="userSpaceOnUse" gradientTransform="translate(-4.56902 182.393) rotate(23.8545) scale(588.25 442.943)">
<stop stop-color="#D5A450"/>
<stop offset="0.550605" stop-color="#FDDE83"/>
<stop offset="1" stop-color="#DEB158"/>
</radialGradient>
<radialGradient id="paint1_radial_518_30" cx="0" cy="0" r="1" gradientUnits="userSpaceOnUse" gradientTransform="translate(79.2515 28.1149) rotate(26.0991) scale(106.04 85.2861)">
<stop stop-color="#D5A450"/>
<stop offset="0.550605" stop-color="#FDDE83"/>
<stop offset="1" stop-color="#DEB158"/>
</radialGradient>
<radialGradient id="paint2_radial_518_30" cx="0" cy="0" r="1" gradientUnits="userSpaceOnUse" gradientTransform="translate(267.49 467.363) rotate(26.218) scale(70.6521 57.0068)">
<stop stop-color="#D5A450"/>
<stop offset="0.550605" stop-color="#FDDE83"/>
<stop offset="1" stop-color="#DEB158"/>
</radialGradient>
<radialGradient id="paint3_radial_518_30" cx="0" cy="0" r="1" gradientUnits="userSpaceOnUse" gradientTransform="translate(410.024 467.621) rotate(26.336) scale(70.085 56.7279)">
<stop stop-color="#D5A450"/>
<stop offset="0.550605" stop-color="#FDDE83"/>
<stop offset="1" stop-color="#DEB158"/>
</radialGradient>
<clipPath id="clip0_518_30">
<rect width="512" height="512" fill="white"/>
</clipPath>
</defs>
</svg>
