<svg width="714" height="422" viewBox="0 0 714 422" fill="none" xmlns="http://www.w3.org/2000/svg">
<path d="M196 0C229.341 0 262.682 0 297.034 0C300.202 6.85164 303.371 13.7033 306.635 20.7625C314.536 37.7925 322.54 54.7641 330.697 71.6634C331.174 72.652 331.651 73.6405 332.143 74.659C335.531 81.6767 338.925 88.6912 342.321 95.7049C346.213 103.742 350.101 111.781 353.982 119.823C354.456 120.805 354.93 121.786 355.418 122.797C361.585 135.586 367.629 148.426 373.53 161.348C380.097 175.726 386.861 189.993 393.726 204.218C394.224 205.249 394.721 206.28 395.233 207.342C398.805 214.74 402.382 222.134 405.961 229.528C410.043 237.962 414.123 246.398 418.195 254.837C418.691 255.864 419.186 256.891 419.697 257.948C426.925 272.939 433.977 288.01 440.898 303.156C448.709 320.22 456.919 337.073 465.139 353.927C467.114 357.982 469.082 362.04 471.049 366.098C471.651 367.326 472.252 368.553 472.872 369.818C477 378.35 477 378.35 477 382C443.659 382 410.318 382 375.966 382C364.056 357.326 364.056 357.326 358.857 346.543C355.354 339.277 351.851 332.011 348.343 324.747C336.885 301.02 325.463 277.29 314.515 253.303C308.818 240.861 302.928 228.523 296.984 216.207C296.504 215.212 296.024 214.216 295.529 213.191C292.088 206.065 288.642 198.942 285.194 191.82C281.259 183.693 277.328 175.564 273.403 167.432C272.922 166.436 272.442 165.44 271.946 164.414C265.725 151.514 259.627 138.56 253.676 125.523C247.083 111.079 240.261 96.7629 233.339 82.4866C232.841 81.4592 232.343 80.4318 231.831 79.3733C227.23 69.8768 222.623 60.3834 218.001 50.8977C215.435 45.6284 212.877 40.3542 210.326 35.077C208.907 32.1501 207.479 29.2287 206.05 26.3074C205.189 24.5262 204.329 22.745 203.443 20.9098C202.689 19.3598 201.935 17.8097 201.158 16.2127C199.157 11.4764 199.157 11.4764 196 0Z" fill="url(#paint0_radial_520_84)"/>
<path d="M73.829 321C144.232 321 214.635 321 287.171 321C296.037 339.934 304.902 358.869 314.036 378.377C322.821 396.534 322.821 396.534 331.686 414.648C333 417.721 333 417.721 333 421C232.35 421 131.7 421 28 421C30.4099 413.5 33.0571 406.681 36.3892 399.637C36.9048 398.536 37.4203 397.435 37.9514 396.3C39.0472 393.962 40.1458 391.625 41.2471 389.29C42.8653 385.858 44.4755 382.422 46.0841 378.985C55.1936 359.582 64.5237 340.306 73.829 321Z" fill="url(#paint1_radial_520_84)"/>
<path d="M179.68 12C184.075 17.5914 187.117 23.7094 190.188 30.1404C190.746 31.296 191.304 32.4516 191.879 33.6422C193.724 37.4671 195.56 41.2966 197.396 45.1263C198.692 47.8202 199.989 50.5138 201.286 53.2072C204.014 58.8733 206.737 64.5416 209.458 70.2115C212.889 77.3647 216.329 84.5137 219.772 91.6613C231.87 116.782 243.953 141.901 255.532 167.285C261.281 179.845 267.239 192.293 273.24 204.725C273.738 205.758 274.237 206.79 274.75 207.853C278.321 215.249 281.899 222.641 285.478 230.033C289.561 238.466 293.642 246.901 297.716 255.34C298.212 256.368 298.708 257.396 299.22 258.456C306.398 273.335 313.391 288.297 320.256 303.335C325.307 314.359 330.548 325.27 335.884 336.148C336.646 337.706 337.408 339.263 338.193 340.867C341.286 347.187 344.381 353.505 347.504 359.808C349.833 364.515 352.137 369.234 354.438 373.956C355.152 375.381 355.866 376.807 356.601 378.276C357.24 379.598 357.88 380.92 358.539 382.282C359.107 383.435 359.675 384.588 360.261 385.776C361.498 389.778 361.096 391.705 359.694 395.607C357.91 398.538 356.026 401.404 354.068 404.213C353.057 405.675 352.045 407.138 351.003 408.644C349.833 410.305 349.833 410.305 348.64 412C345.418 407.725 342.785 403.53 340.452 398.675C339.812 397.352 339.173 396.028 338.513 394.665C337.833 393.241 337.153 391.817 336.452 390.349C335.735 388.859 335.017 387.37 334.278 385.835C331.953 381.001 329.638 376.163 327.323 371.324C325.724 367.993 324.126 364.663 322.527 361.333C314.165 343.895 305.882 326.428 297.873 308.812C291.593 295.039 284.996 281.436 278.404 267.822C271.19 252.913 264.145 237.933 257.264 222.854C251.565 210.409 245.648 198.082 239.685 185.77C233.034 172.038 226.481 158.269 220.144 144.377C212.832 128.363 205.269 112.485 197.642 96.6311C197.074 95.4461 196.505 94.261 195.919 93.0401C194.305 89.68 192.687 86.3224 191.067 82.9657C190.578 81.9464 190.088 80.9272 189.584 79.877C187.452 75.1298 187.452 75.1298 184.418 71.0164C180.734 70.9493 177.048 70.9469 173.364 71.0164C172.951 72.4102 172.538 73.804 172.112 75.24C170.122 81.1011 167.689 86.4214 164.982 91.9629C164.218 93.5341 164.218 93.5341 163.44 95.1372C162.351 97.3776 161.259 99.6166 160.165 101.854C157.268 107.784 154.392 113.724 151.516 119.665C150.944 120.847 150.372 122.029 149.782 123.247C145.12 132.896 140.601 142.61 136.158 152.369C129.05 167.959 121.645 183.385 114.184 198.796C106.969 213.706 99.9233 228.689 93.0417 243.769C86.8857 257.211 80.4703 270.513 74.03 283.81C67.1084 298.107 60.3711 312.481 53.7737 326.942C46.6485 342.494 39.2022 357.876 31.7238 373.247C25.5091 386.047 19.5785 398.944 13.8788 412C12.8366 412 11.7944 412 10.7207 412C7.93879 408.343 7.93879 408.343 4.89786 403.496C3.88214 401.917 2.86642 400.339 1.81992 398.712C-0.72125 393.111 -0.299399 391.595 1.24627 385.77C2.33471 383.018 3.5153 380.304 4.76485 377.626C5.49994 376.041 6.23502 374.457 6.99238 372.824C7.79729 371.116 8.6022 369.408 9.4315 367.648C10.2731 365.846 11.1147 364.043 11.9818 362.187C21.9434 340.926 32.1693 319.802 42.4006 298.68C57.909 266.688 57.9089 266.688 72.9395 234.451C79.6464 219.774 86.5614 205.211 93.5722 190.689C94.087 189.622 94.6018 188.555 95.1322 187.456C99.3684 178.684 103.613 169.915 107.857 161.147C111.554 153.51 115.248 145.871 118.936 138.23C119.449 137.167 119.961 136.105 120.49 135.01C127.83 119.791 135.006 104.497 142.038 89.1214C148.571 74.8479 155.32 60.6916 162.141 46.5647C164.148 42.4077 166.147 38.2472 168.146 34.0863C169.429 31.4243 170.711 28.7625 171.995 26.1009C172.589 24.865 173.182 23.6292 173.794 22.3558C177.92 13.828 177.92 13.828 179.68 12Z" fill="url(#paint2_radial_520_84)"/>
<path d="M128.976 203C162.459 203 195.941 203 230.439 203C240.134 222.047 249.704 241.012 258.742 260.381C260.495 264.137 262.257 267.889 264.02 271.641C265.161 274.076 266.301 276.512 267.441 278.948C267.956 280.046 268.472 281.144 269.003 282.275C269.735 283.846 269.735 283.846 270.482 285.449C270.902 286.349 271.322 287.249 271.755 288.176C273.932 293.073 275.947 298.046 278 303C213.65 303 149.3 303 83 303C86.5665 291.936 86.5665 291.936 89.0945 286.771C89.6564 285.615 90.2183 284.458 90.7972 283.267C91.3999 282.042 92.0027 280.818 92.6237 279.556C93.5747 277.602 93.5747 277.602 94.5449 275.609C96.5696 271.45 98.6027 267.297 100.637 263.143C102.637 259.054 104.634 254.964 106.628 250.871C107.863 248.336 109.101 245.803 110.345 243.272C116.833 229.97 122.832 216.5 128.976 203Z" fill="url(#paint3_radial_520_84)"/>
<path d="M515.897 68.2688C516.951 68.7288 518.005 69.1888 519.091 69.6627C520.303 70.1761 521.515 70.6895 522.764 71.2184C524.079 71.807 525.394 72.3955 526.749 73.0019C535.898 77.0773 544.919 80.9501 554.442 84.0007C569.852 89.2179 582.249 93.7736 590.264 109.122C593.016 115.298 595.458 121.551 597.767 127.917C601.152 136.837 605.349 145.357 609.422 153.957C610.893 157.145 612.359 160.336 613.82 163.529C614.435 164.872 615.051 166.216 615.685 167.6C616.336 169.023 616.336 169.023 617 170.475C610.675 172.659 607.224 170.28 601.468 167.569C599.302 166.589 597.136 165.61 594.969 164.631C591.566 163.071 588.166 161.503 584.77 159.926C581.487 158.408 578.192 156.92 574.895 155.436C573.389 154.72 573.389 154.72 571.852 153.989C565.245 151.034 560.917 150.364 554.011 152.53C550.401 154.536 550.401 154.536 547.165 157.214C545.346 158.619 545.346 158.619 543.49 160.053C541.634 161.527 541.634 161.527 539.741 163.032C537.267 164.975 534.789 166.91 532.304 168.837C531.218 169.698 530.132 170.559 529.013 171.446C525.407 173.915 521.846 175.475 517.793 177C508.114 157.118 498.505 137.2 489.153 117.15C488.415 115.583 487.676 114.017 486.915 112.402C486.235 110.935 485.554 109.467 484.853 107.955C484.256 106.675 483.659 105.395 483.044 104.076C481.496 100.127 480.678 96.3655 480 92.1702C484.625 88.7021 489.251 85.236 493.877 81.7704C495.189 80.7862 496.502 79.802 497.854 78.7881C499.749 77.3686 499.749 77.3686 501.683 75.9205C502.846 75.0491 504.009 74.1777 505.207 73.2799C512.829 67.6518 512.829 67.6518 515.897 68.2688Z" fill="url(#paint4_radial_520_84)"/>
<path d="M611.308 269.14C621.745 272.193 631.705 276.798 641.719 281.073C644.523 282.261 647.334 283.433 650.153 284.586C654.242 286.261 658.307 287.989 662.37 289.73C663.621 290.231 664.872 290.731 666.161 291.247C675.567 295.386 679.42 300.475 683.953 309.801C684.83 311.485 684.83 311.485 685.725 313.203C687.54 316.716 689.287 320.258 691.019 323.816C691.644 325.095 692.27 326.375 692.914 327.693C694.219 330.37 695.521 333.049 696.819 335.729C698.815 339.841 700.835 343.94 702.856 348.039C704.126 350.652 705.394 353.265 706.661 355.879C707.268 357.103 707.875 358.327 708.501 359.588C712.646 368.243 712.646 368.243 710.881 373.722C709.308 373.001 707.734 372.28 706.113 371.538C700.253 368.866 694.37 366.249 688.48 363.648C685.937 362.517 683.401 361.37 680.871 360.209C677.225 358.538 673.56 356.922 669.888 355.315C668.767 354.788 667.646 354.261 666.492 353.717C660.12 350.999 657.864 350.506 651.008 352.708C645.618 355.861 645.618 355.861 640.627 359.586C639.769 360.287 638.911 360.989 638.028 361.711C637.174 362.43 636.321 363.148 635.441 363.888C623.146 374.09 623.146 374.09 617.423 377C611.541 374.971 611.326 373.612 608.616 368.031C607.85 366.472 607.085 364.913 606.295 363.307C605.483 361.61 604.671 359.913 603.835 358.164C602.994 356.432 602.153 354.7 601.287 352.915C599.511 349.246 597.743 345.572 595.983 341.895C593.277 336.253 590.539 330.629 587.796 325.007C586.078 321.446 584.362 317.884 582.648 314.321C581.823 312.631 580.999 310.941 580.149 309.199C579.403 307.63 578.657 306.06 577.888 304.443C577.224 303.061 576.559 301.68 575.875 300.256C574.654 296.689 574.654 296.689 576.238 291.772C579.719 288.914 583.175 286.275 586.831 283.68C588.288 282.623 588.288 282.623 589.773 281.544C591.709 280.145 593.654 278.759 595.608 277.387C598.256 275.495 600.829 273.492 603.395 271.483C607.919 268.826 607.919 268.826 611.308 269.14Z" fill="url(#paint5_radial_520_84)"/>
<path d="M395.814 68.2154C396.869 68.6756 397.924 69.1358 399.011 69.61C400.224 70.1234 401.437 70.6367 402.687 71.1657C404.003 71.7548 405.32 72.3439 406.676 72.9508C415.812 77.0317 424.793 80.8854 434.336 83.8403C450.716 89.2452 462.483 94.2103 470.887 110.423C473.926 117.187 476.666 124.027 479.247 130.992C482.494 139.472 486.431 147.593 490.302 155.782C491.612 158.636 492.918 161.492 494.217 164.351C494.757 165.538 495.297 166.724 495.853 167.947C496.232 168.78 496.61 169.613 497 170.471C490.67 172.657 487.217 170.276 481.456 167.564C479.288 166.584 477.12 165.604 474.952 164.625C471.545 163.064 468.142 161.496 464.743 159.917C461.458 158.399 458.16 156.911 454.861 155.425C453.353 154.709 453.353 154.709 451.815 153.978C445.203 151.021 440.872 150.351 433.96 152.518C430.347 154.525 430.347 154.525 427.108 157.204C425.288 158.61 425.288 158.61 423.43 160.044C421.573 161.52 421.573 161.52 419.678 163.025C417.203 164.969 414.722 166.905 412.235 168.833C411.148 169.694 410.061 170.556 408.941 171.443C405.333 173.913 401.769 175.474 397.712 177C386.433 153.859 375.434 130.596 364.715 107.171C363.099 103.549 363.099 103.549 361.148 100.223C359.889 97.0249 359.889 97.0249 360.114 93.6531C361.847 89.6022 363.79 88.1772 367.313 85.6892C368.495 84.8413 369.678 83.9934 370.896 83.1198C372.139 82.2551 373.383 81.3904 374.664 80.4995C375.895 79.6221 377.126 78.7448 378.394 77.8409C392.786 67.6065 392.786 67.6065 395.814 68.2154Z" fill="url(#paint6_radial_520_84)"/>
<path d="M491.322 269.079C501.737 272.225 511.701 276.775 521.719 281.053C524.523 282.242 527.334 283.413 530.153 284.567C534.242 286.242 538.307 287.97 542.37 289.712C543.621 290.213 544.872 290.714 546.161 291.23C555.567 295.369 559.42 300.46 563.953 309.787C564.83 311.471 564.83 311.471 565.725 313.19C567.54 316.704 569.287 320.246 571.019 323.805C571.644 325.085 572.27 326.364 572.914 327.683C574.219 330.36 575.521 333.04 576.819 335.721C578.815 339.833 580.835 343.933 582.856 348.033C584.126 350.646 585.394 353.26 586.661 355.874C587.268 357.099 587.875 358.323 588.501 359.585C592.646 368.241 592.646 368.241 590.881 373.721C589.308 373 587.734 372.279 586.113 371.536C580.253 368.864 574.37 366.247 568.48 363.646C565.937 362.514 563.401 361.367 560.871 360.205C557.225 358.534 553.56 356.918 549.888 355.311C548.767 354.783 547.646 354.256 546.492 353.713C540.12 350.993 537.864 350.501 531.008 352.703C525.618 355.856 525.618 355.856 520.627 359.582C519.769 360.284 518.911 360.985 518.028 361.708C517.174 362.427 516.321 363.145 515.441 363.885C503.146 374.089 503.146 374.089 497.423 377C491.541 374.971 491.326 373.612 488.616 368.029C487.85 366.47 487.085 364.91 486.295 363.304C485.483 361.607 484.671 359.909 483.835 358.16C482.994 356.428 482.153 354.695 481.287 352.91C479.511 349.24 477.743 345.566 475.983 341.888C473.277 336.245 470.539 330.62 467.796 324.996C466.078 321.434 464.362 317.872 462.648 314.308C461.823 312.618 460.999 310.927 460.149 309.185C459.403 307.615 458.657 306.046 457.888 304.428C457.224 303.046 456.559 301.664 455.875 300.24C454.654 296.673 454.654 296.673 456.238 291.755C458.814 289.442 458.814 289.442 462.116 287.086C463.305 286.229 464.493 285.373 465.717 284.49C466.967 283.607 468.217 282.725 469.504 281.816C470.742 280.928 471.979 280.039 473.254 279.123C487.677 268.784 487.677 268.784 491.322 269.079Z" fill="url(#paint7_radial_520_84)"/>
<path d="M574.951 172.649C577.258 173.617 579.56 174.598 581.857 175.589C583.085 176.114 584.314 176.638 585.579 177.179C588.165 178.288 590.748 179.403 593.329 180.523C597.263 182.224 601.208 183.891 605.155 185.557C607.675 186.643 610.194 187.73 612.712 188.82C613.883 189.311 615.055 189.802 616.262 190.308C629.156 195.986 634.754 204.625 640.726 217.365C641.376 218.722 642.026 220.079 642.696 221.477C644.061 224.332 645.418 227.192 646.767 230.055C648.833 234.435 650.923 238.803 653.017 243.17C654.343 245.952 655.668 248.735 656.991 251.519C657.613 252.824 658.236 254.128 658.877 255.472C659.452 256.693 660.026 257.915 660.618 259.173C661.123 260.242 661.628 261.31 662.149 262.411C663.458 265.599 664.282 268.697 665 272.077C657.734 271.121 651.887 269.055 645.229 265.91C643.284 265.01 641.338 264.11 639.392 263.211C636.363 261.797 633.338 260.376 630.318 258.943C627.377 257.554 624.426 256.192 621.473 254.833C619.724 254.01 617.975 253.187 616.174 252.339C610.935 250.597 608.628 250.523 603.489 252.384C600.171 254.253 600.171 254.253 597.075 256.679C595.919 257.54 594.763 258.401 593.572 259.288C591.796 260.643 591.796 260.643 589.984 262.026C588.793 262.916 587.603 263.807 586.376 264.724C579.804 269.645 579.804 269.645 573.429 274.834C570.367 277 570.367 277 565.635 277C565.049 275.73 564.463 274.46 563.859 273.152C561.606 268.277 559.351 263.404 557.095 258.531C555.584 255.263 554.076 251.994 552.568 248.725C547.984 238.807 543.364 228.928 538.465 219.173C537.72 217.679 536.974 216.185 536.207 214.646C534.824 211.893 533.42 209.152 531.994 206.424C531.385 205.207 530.776 203.991 530.148 202.737C529.611 201.699 529.074 200.661 528.521 199.592C527.782 196.589 527.782 196.589 528.825 193.258C532.878 187.053 538.963 183.204 544.737 178.846C545.998 177.844 547.258 176.842 548.557 175.81C549.793 174.872 551.029 173.934 552.303 172.967C553.423 172.107 554.542 171.246 555.696 170.36C562.439 167.262 568.401 170.078 574.951 172.649Z" fill="url(#paint8_radial_520_84)"/>
<path d="M454.914 172.649C457.222 173.617 459.525 174.598 461.823 175.589C463.052 176.114 464.281 176.638 465.547 177.179C468.133 178.288 470.718 179.403 473.3 180.523C477.235 182.224 481.182 183.891 485.131 185.557C487.651 186.643 490.171 187.73 492.69 188.82C493.862 189.311 495.034 189.802 496.242 190.308C509.483 196.136 514.987 205.146 521.116 218.198C521.806 219.636 522.495 221.074 523.205 222.555C524.651 225.578 526.089 228.606 527.521 231.637C529.719 236.292 531.941 240.933 534.168 245.574C535.571 248.516 536.973 251.46 538.374 254.404C539.04 255.797 539.705 257.19 540.391 258.625C540.997 259.913 541.604 261.2 542.228 262.527C542.765 263.661 543.302 264.795 543.855 265.963C545 268.795 545 268.795 545 272.077C537.731 271.121 531.881 269.055 525.221 265.91C523.275 265.01 521.328 264.11 519.381 263.211C516.352 261.797 513.325 260.376 510.304 258.943C507.362 257.554 504.41 256.192 501.455 254.833C499.705 254.01 497.956 253.187 496.154 252.339C490.913 250.597 488.605 250.523 483.463 252.384C480.145 254.253 480.145 254.253 477.047 256.679C475.891 257.54 474.735 258.401 473.543 259.288C471.766 260.643 471.766 260.643 469.953 262.026C468.762 262.916 467.571 263.807 466.344 264.724C459.77 269.645 459.77 269.645 453.392 274.834C450.328 277 450.328 277 445.595 277C444.967 275.62 444.967 275.62 444.327 274.212C442.289 269.738 440.244 265.266 438.199 260.795C437.439 259.127 436.678 257.46 435.895 255.741C431.539 246.241 427.069 236.822 422.408 227.481C421.457 225.561 420.507 223.641 419.527 221.662C417.66 217.906 415.773 214.16 413.864 210.427C413.016 208.714 412.168 207.001 411.295 205.237C410.147 202.967 410.147 202.967 408.975 200.652C407.726 196.589 407.726 196.589 408.694 193.102C412.964 187.097 418.925 183.194 424.688 178.846C425.949 177.844 427.21 176.842 428.51 175.81C429.746 174.872 430.983 173.934 432.257 172.967C433.377 172.107 434.497 171.246 435.652 170.36C442.397 167.262 448.361 170.078 454.914 172.649Z" fill="url(#paint9_radial_520_84)"/>
<path d="M374.475 402C486.518 402 598.562 402 714 402C709.789 408.468 705.578 414.935 701.367 421.403C696.87 421.878 692.717 422.035 688.217 421.986C686.841 421.99 685.464 421.994 684.046 421.999C679.407 422.007 674.769 421.98 670.131 421.953C666.816 421.952 663.502 421.953 660.187 421.955C651.166 421.957 642.145 421.928 633.124 421.895C623.705 421.864 614.286 421.861 604.867 421.856C587.02 421.84 569.174 421.801 551.327 421.752C531.014 421.698 510.701 421.671 490.387 421.647C448.591 421.596 406.796 421.511 365 421.403C367.537 414.261 370.66 408.835 374.475 402Z" fill="url(#paint10_radial_520_84)"/>
<path d="M434 0C467.295 0 500.59 0 534.894 0C553.843 37.415 553.843 37.415 560.315 50.7872C561.071 52.3247 561.827 53.8621 562.606 55.4461C563.672 57.6509 563.672 57.6509 564.761 59.9003C565.387 61.1864 566.013 62.4725 566.658 63.7976C568 67.1702 568 67.1702 568 72.0851C555.039 67.8837 542.901 62.2682 530.58 56.3709C529.039 55.6539 527.498 54.9369 525.909 54.1982C524.53 53.5431 523.151 52.8881 521.73 52.2131C515.627 50.1299 510.577 49.5487 504.685 52.4879C503.662 53.2698 502.639 54.0518 501.585 54.8574C499.87 56.1435 499.87 56.1435 498.121 57.4556C496.958 58.3637 495.794 59.2718 494.596 60.2074C492.841 61.5316 492.841 61.5316 491.052 62.8825C486.164 66.5911 481.391 70.3641 476.719 74.3634C473.412 77 473.412 77 470.259 77C465.091 66.2996 459.927 55.5967 454.767 44.892C453.01 41.2474 451.251 37.6033 449.491 33.9599C446.969 28.736 444.45 23.5101 441.932 18.2837C441.139 16.6437 440.345 15.0037 439.528 13.314C438.802 11.8053 438.076 10.2966 437.328 8.74226C436.362 6.73952 436.362 6.73952 435.377 4.69633C434 1.6383 434 1.6383 434 0Z" fill="url(#paint11_radial_520_84)"/>
<path d="M316 0C349.308 0 382.616 0 416.934 0C422.659 12.4347 428.384 24.8694 434.282 37.6809C440.174 49.6408 440.174 49.6408 446.135 61.5642C448.476 67.1702 448.476 67.1702 446.899 72.0851C444.751 71.1173 444.751 71.1173 442.561 70.13C437.225 67.7306 431.879 65.3547 426.53 62.9857C424.221 61.959 421.915 60.9261 419.611 59.8867C416.29 58.3897 412.96 56.9159 409.627 55.4461C408.607 54.9803 407.586 54.5144 406.535 54.0344C400.293 51.3134 395.301 49.952 388.546 50.7872C385.065 52.3884 385.065 52.3884 382.035 54.8574C380.319 56.1435 380.319 56.1435 378.569 57.4556C377.405 58.3637 376.242 59.2718 375.042 60.2074C373.287 61.5316 373.287 61.5316 371.497 62.8825C366.608 66.5911 361.832 70.3641 357.158 74.3634C353.85 77 353.85 77 350.696 77C345.742 66.8309 340.802 56.6541 335.872 46.4719C334.193 43.0074 332.51 39.5447 330.824 36.0838C328.404 31.1149 325.995 26.1399 323.59 21.1635C322.451 18.8364 322.451 18.8364 321.29 16.4622C320.248 14.298 320.248 14.298 319.185 12.09C318.569 10.8204 317.952 9.55071 317.317 8.24256C316 4.91489 316 4.91489 316 0Z" fill="url(#paint12_radial_520_84)"/>
<path d="M180 98C184.749 103.978 187.839 110.591 191.125 117.499C191.729 118.759 192.334 120.018 192.957 121.316C194.235 123.982 195.51 126.649 196.782 129.317C198.702 133.345 200.632 137.367 202.564 141.388C221 179.853 221 179.853 221 185C193.94 185 166.88 185 139 185C147.598 166.105 156.197 147.219 164.956 128.405C166.644 124.778 168.326 121.148 170.009 117.519C171.088 115.197 172.168 112.876 173.249 110.555C173.748 109.476 174.247 108.398 174.762 107.287C178.243 99.8292 178.243 99.8292 180 98Z" fill="url(#paint13_radial_520_84)"/>
<path d="M665.314 371.792C666.625 372.372 667.935 372.951 669.286 373.548C670.742 374.163 672.199 374.777 673.699 375.41C677.478 377.013 681.243 378.648 685 380.31C685 380.867 685 381.425 685 382C670.48 382 655.96 382 641 382C643.593 379.211 646.186 376.422 648.857 373.548C649.765 372.433 650.672 371.317 651.607 370.168C656.846 367.663 660.114 369.651 665.314 371.792Z" fill="url(#paint14_radial_520_84)"/>
<path d="M545.314 371.792C546.625 372.372 547.935 372.951 549.286 373.548C550.742 374.163 552.199 374.777 553.699 375.41C557.478 377.013 561.243 378.648 565 380.31C565 380.867 565 381.425 565 382C550.48 382 535.96 382 521 382C523.593 379.211 526.186 376.422 528.857 373.548C529.765 372.433 530.672 371.317 531.607 370.168C536.846 367.663 540.114 369.651 545.314 371.792Z" fill="url(#paint15_radial_520_84)"/>
<defs>
<radialGradient id="paint0_radial_520_84" cx="0" cy="0" r="1" gradientUnits="userSpaceOnUse" gradientTransform="translate(193.578 110.903) rotate(33.7707) scale(354.689 333.657)">
<stop stop-color="#D5A450"/>
<stop offset="0.550605" stop-color="#FDDE83"/>
<stop offset="1" stop-color="#DEB158"/>
</radialGradient>
<radialGradient id="paint1_radial_520_84" cx="0" cy="0" r="1" gradientUnits="userSpaceOnUse" gradientTransform="translate(25.3707 350.032) rotate(9.16165) scale(324.16 103.734)">
<stop stop-color="#D5A450"/>
<stop offset="0.550605" stop-color="#FDDE83"/>
<stop offset="1" stop-color="#DEB158"/>
</radialGradient>
<radialGradient id="paint2_radial_520_84" cx="0" cy="0" r="1" gradientUnits="userSpaceOnUse" gradientTransform="translate(-3.11209 128.129) rotate(28.5921) scale(431.392 369.041)">
<stop stop-color="#D5A450"/>
<stop offset="0.550605" stop-color="#FDDE83"/>
<stop offset="1" stop-color="#DEB158"/>
</radialGradient>
<radialGradient id="paint3_radial_520_84" cx="0" cy="0" r="1" gradientUnits="userSpaceOnUse" gradientTransform="translate(81.319 232.032) rotate(14.1578) scale(211.015 101.883)">
<stop stop-color="#D5A450"/>
<stop offset="0.550605" stop-color="#FDDE83"/>
<stop offset="1" stop-color="#DEB158"/>
</radialGradient>
<radialGradient id="paint4_radial_520_84" cx="0" cy="0" r="1" gradientUnits="userSpaceOnUse" gradientTransform="translate(478.819 99.6452) rotate(21.3736) scale(154.365 106.654)">
<stop stop-color="#D5A450"/>
<stop offset="0.550605" stop-color="#FDDE83"/>
<stop offset="1" stop-color="#DEB158"/>
</radialGradient>
<radialGradient id="paint5_radial_520_84" cx="0" cy="0" r="1" gradientUnits="userSpaceOnUse" gradientTransform="translate(573.819 300.355) rotate(21.195) scale(154.178 105.804)">
<stop stop-color="#D5A450"/>
<stop offset="0.550605" stop-color="#FDDE83"/>
<stop offset="1" stop-color="#DEB158"/>
</radialGradient>
<radialGradient id="paint6_radial_520_84" cx="0" cy="0" r="1" gradientUnits="userSpaceOnUse" gradientTransform="translate(358.819 99.6452) rotate(21.3736) scale(154.365 106.654)">
<stop stop-color="#D5A450"/>
<stop offset="0.550605" stop-color="#FDDE83"/>
<stop offset="1" stop-color="#DEB158"/>
</radialGradient>
<radialGradient id="paint7_radial_520_84" cx="0" cy="0" r="1" gradientUnits="userSpaceOnUse" gradientTransform="translate(453.819 300.355) rotate(21.195) scale(154.178 105.804)">
<stop stop-color="#D5A450"/>
<stop offset="0.550605" stop-color="#FDDE83"/>
<stop offset="1" stop-color="#DEB158"/>
</radialGradient>
<radialGradient id="paint8_radial_520_84" cx="0" cy="0" r="1" gradientUnits="userSpaceOnUse" gradientTransform="translate(526.819 200.355) rotate(21.195) scale(154.178 105.804)">
<stop stop-color="#D5A450"/>
<stop offset="0.550605" stop-color="#FDDE83"/>
<stop offset="1" stop-color="#DEB158"/>
</radialGradient>
<radialGradient id="paint9_radial_520_84" cx="0" cy="0" r="1" gradientUnits="userSpaceOnUse" gradientTransform="translate(406.819 200.355) rotate(21.195) scale(154.178 105.804)">
<stop stop-color="#D5A450"/>
<stop offset="0.550605" stop-color="#FDDE83"/>
<stop offset="1" stop-color="#DEB158"/>
</radialGradient>
<radialGradient id="paint10_radial_520_84" cx="0" cy="0" r="1" gradientUnits="userSpaceOnUse" gradientTransform="translate(361.991 407.806) rotate(1.61468) scale(366.338 21.0065)">
<stop stop-color="#D5A450"/>
<stop offset="0.550605" stop-color="#FDDE83"/>
<stop offset="1" stop-color="#DEB158"/>
</radialGradient>
<radialGradient id="paint11_radial_520_84" cx="0" cy="0" r="1" gradientUnits="userSpaceOnUse" gradientTransform="translate(432.845 22.3548) rotate(15.7833) scale(146.11 77.8566)">
<stop stop-color="#D5A450"/>
<stop offset="0.550605" stop-color="#FDDE83"/>
<stop offset="1" stop-color="#DEB158"/>
</radialGradient>
<radialGradient id="paint12_radial_520_84" cx="0" cy="0" r="1" gradientUnits="userSpaceOnUse" gradientTransform="translate(314.862 22.3548) rotate(16.0103) scale(144.091 77.7689)">
<stop stop-color="#D5A450"/>
<stop offset="0.550605" stop-color="#FDDE83"/>
<stop offset="1" stop-color="#DEB158"/>
</radialGradient>
<radialGradient id="paint13_radial_520_84" cx="0" cy="0" r="1" gradientUnits="userSpaceOnUse" gradientTransform="translate(138.293 123.258) rotate(27.5597) scale(97.0519 81.0416)">
<stop stop-color="#D5A450"/>
<stop offset="0.550605" stop-color="#FDDE83"/>
<stop offset="1" stop-color="#DEB158"/>
</radialGradient>
<radialGradient id="paint14_radial_520_84" cx="0" cy="0" r="1" gradientUnits="userSpaceOnUse" gradientTransform="translate(640.621 372.774) rotate(8.26909) scale(46.6525 13.5176)">
<stop stop-color="#D5A450"/>
<stop offset="0.550605" stop-color="#FDDE83"/>
<stop offset="1" stop-color="#DEB158"/>
</radialGradient>
<radialGradient id="paint15_radial_520_84" cx="0" cy="0" r="1" gradientUnits="userSpaceOnUse" gradientTransform="translate(520.621 372.774) rotate(8.26909) scale(46.6525 13.5176)">
<stop stop-color="#D5A450"/>
<stop offset="0.550605" stop-color="#FDDE83"/>
<stop offset="1" stop-color="#DEB158"/>
</radialGradient>
</defs>
</svg>
