<svg width="512" height="512" viewBox="0 0 512 512" fill="none" xmlns="http://www.w3.org/2000/svg">
<path d="M101 65C144.89 65 188.78 65 234 65C234.443 115.755 234.443 115.755 234.537 137.027C234.602 151.714 234.679 166.401 234.83 181.087C234.94 191.784 235.01 202.48 235.035 213.176C235.049 218.839 235.083 224.5 235.163 230.163C235.238 235.497 235.261 240.829 235.244 246.163C235.247 248.117 235.269 250.07 235.311 252.023C235.63 267.513 235.63 267.513 231.656 272.289C228.893 274.839 226.125 276.919 223 279C221.196 280.464 219.402 281.941 217.625 283.438C216.72 284.168 215.815 284.899 214.883 285.652C211.72 288.228 208.607 290.857 205.5 293.5C200.651 297.621 195.748 301.67 190.812 305.688C187.682 308.261 184.588 310.876 181.5 313.5C176.655 317.617 171.758 321.664 166.824 325.676C163.097 328.743 159.423 331.87 155.766 335.02C136.366 351.591 137.94 345 101 345C101 252.6 101 160.2 101 65ZM147 127C145.731 128.201 144.46 129.4 143.188 130.598C141.811 131.918 140.436 133.239 139.062 134.562C138.387 135.199 137.712 135.836 137.016 136.492C134.066 139.394 132.225 141.291 130.957 145.289C130.783 148.15 130.783 148.15 132.625 150.812C135.298 153.274 136.372 154.086 140 154C145.755 150.761 150.132 146.165 154.75 141.5C155.517 140.741 156.284 139.981 157.074 139.199C157.808 138.463 158.541 137.727 159.297 136.969C159.96 136.303 160.624 135.637 161.308 134.951C162.983 133.02 164.061 131.372 165 129C164.798 126.238 164.368 124.543 162.812 122.25C155.691 117.339 152.092 121.9 147 127ZM185.349 128.853C184.66 129.496 183.971 130.139 183.26 130.802C182.515 131.527 181.769 132.253 181 133C179.794 134.157 179.794 134.157 178.564 135.338C175.828 137.991 173.115 140.666 170.41 143.352C169.922 143.835 169.434 144.319 168.932 144.818C166.36 147.369 163.791 149.923 161.225 152.479C158.582 155.112 155.927 157.732 153.269 160.35C151.217 162.377 149.173 164.412 147.132 166.45C146.156 167.421 145.177 168.388 144.195 169.351C142.826 170.696 141.472 172.054 140.117 173.413C138.958 174.563 138.958 174.563 137.775 175.737C135.797 178.259 135.209 179.819 135 183C136.142 185.283 137.19 187.19 139 189C142.364 189.549 144.881 189.774 147.779 187.77C148.384 187.216 148.99 186.661 149.614 186.091C150.313 185.452 151.011 184.814 151.731 184.156C155.918 180.178 160.031 176.132 164.117 172.051C165.065 171.106 166.013 170.162 166.961 169.217C168.931 167.253 170.899 165.287 172.865 163.32C175.382 160.803 177.905 158.294 180.431 155.785C182.852 153.378 185.265 150.964 187.68 148.551C188.585 147.653 189.49 146.755 190.423 145.83C191.257 144.992 192.092 144.154 192.953 143.29C193.688 142.556 194.423 141.822 195.181 141.066C197.909 137.968 199.045 136.1 198.875 131.938C198.227 128.964 198.227 128.964 196.25 127.125C191.862 124.931 188.839 125.557 185.349 128.853Z" fill="url(#paint0_radial_520_121)"/>
<path d="M68 32C192.08 32 316.16 32 444 32C444 146.51 444 261.02 444 379C395.82 379 347.64 379 298 379C298 378.34 298 377.68 298 377C299.59 375.541 301.25 374.158 302.938 372.812C303.854 372.076 304.771 371.34 305.715 370.582C306.246 370.184 306.778 369.787 307.325 369.377C309.062 368.031 309.062 368.031 310.497 366.246C315.741 360.839 320.936 360.322 328.106 360.145C332.253 360.093 336.396 360.127 340.543 360.168C342.758 360.164 344.973 360.156 347.187 360.145C353 360.124 358.812 360.143 364.624 360.172C373.937 360.212 383.25 360.189 392.563 360.169C395.81 360.168 399.057 360.182 402.305 360.2C404.297 360.203 406.289 360.205 408.282 360.208C409.181 360.217 410.081 360.225 411.007 360.235C415.708 360.229 419.634 359.978 424 358C425.244 355.512 425.129 353.849 425.134 351.064C425.141 349.489 425.141 349.489 425.148 347.882C425.148 346.72 425.147 345.557 425.147 344.359C425.153 342.517 425.153 342.517 425.158 340.638C425.167 337.218 425.172 333.799 425.175 330.379C425.179 326.695 425.188 323.011 425.197 319.328C425.217 310.427 425.227 301.526 425.236 292.625C425.24 288.436 425.245 284.248 425.251 280.059C425.268 266.142 425.282 252.224 425.289 238.306C425.291 234.694 425.293 231.081 425.295 227.468C425.296 226.57 425.296 225.672 425.297 224.747C425.305 210.19 425.33 195.633 425.363 181.077C425.396 166.143 425.414 151.208 425.417 136.274C425.419 127.884 425.428 119.495 425.453 111.106C425.475 103.963 425.483 96.8206 425.474 89.6779C425.469 86.0318 425.471 82.386 425.49 78.7399C425.511 74.7914 425.501 70.8433 425.488 66.8947C425.499 65.7365 425.51 64.5784 425.521 63.3851C425.508 61.8023 425.508 61.8023 425.495 60.1874C425.496 58.8198 425.496 58.8198 425.498 57.4245C424.839 54.215 423.533 53.0138 421 51C418.078 50.397 418.078 50.397 414.782 50.4853C413.505 50.4726 412.228 50.4599 410.912 50.4468C409.499 50.453 408.085 50.4596 406.672 50.4666C405.182 50.4595 403.692 50.4507 402.202 50.4404C398.157 50.4179 394.111 50.4209 390.066 50.4298C386.689 50.4349 383.311 50.4276 379.934 50.4203C371.966 50.4033 363.999 50.4069 356.031 50.4236C347.812 50.4405 339.593 50.4247 331.373 50.3924C324.316 50.3657 317.258 50.3584 310.201 50.3669C305.986 50.3718 301.771 50.3696 297.556 50.3491C293.592 50.3307 289.629 50.3367 285.665 50.3613C284.211 50.3663 282.757 50.3628 281.303 50.3501C279.317 50.3342 277.331 50.3522 275.345 50.3718C273.678 50.3727 273.678 50.3727 271.978 50.3736C267.886 51.2344 266.446 52.635 264 56C263.526 58.7834 263.36 60.9437 263.428 63.7159C263.426 64.8705 263.426 64.8705 263.424 66.0483C263.426 68.6244 263.463 71.1987 263.499 73.7744C263.507 75.6226 263.513 77.4708 263.516 79.319C263.528 83.298 263.554 87.2767 263.592 91.2556C263.65 97.551 263.664 103.846 263.671 110.142C263.696 128.044 263.78 145.945 263.907 163.846C263.977 173.734 264.011 183.621 264.007 193.509C264.006 199.764 264.05 206.016 264.128 212.271C264.166 216.169 264.162 220.066 264.146 223.964C264.147 225.766 264.165 227.568 264.202 229.37C264.466 242.929 264.466 242.929 260.837 248.056C257.206 251.419 253.478 253.91 249 256C248.999 254.974 248.999 253.948 248.998 252.89C248.984 227.936 248.941 202.983 248.868 178.029C248.833 165.961 248.808 153.894 248.804 141.826C248.801 131.31 248.781 120.794 248.739 110.277C248.718 104.707 248.706 99.1377 248.714 93.5678C248.721 88.3269 248.706 83.0866 248.672 77.8458C248.664 75.9209 248.664 73.996 248.673 72.0711C248.685 69.4447 248.666 66.8203 248.639 64.194C248.65 63.4304 248.661 62.6668 248.672 61.88C248.599 58.0726 248.103 56.1423 245.857 53.0267C242.469 50.6232 240.776 50.3759 236.655 50.3785C235.375 50.3673 234.095 50.3561 232.776 50.3446C231.365 50.3575 229.954 50.3709 228.543 50.3848C227.051 50.3813 225.559 50.3756 224.067 50.368C220.022 50.3537 215.977 50.3708 211.932 50.3942C207.697 50.4143 203.463 50.4085 199.229 50.4061C192.12 50.4062 185.01 50.4259 177.901 50.458C169.681 50.4949 161.461 50.5037 153.241 50.4967C145.333 50.4904 137.425 50.5012 129.516 50.5207C126.151 50.5289 122.785 50.5316 119.42 50.53C115.458 50.5291 111.496 50.5433 107.534 50.5692C106.08 50.5764 104.625 50.5785 103.171 50.5751C101.186 50.5714 99.2021 50.588 97.2179 50.6056C96.1072 50.6093 94.9964 50.613 93.8521 50.6169C90.5623 51.0588 89.3668 51.7094 87 54C86.4019 56.3638 86.4019 56.3638 86.4994 59.0772C86.4896 60.1333 86.4798 61.1894 86.4697 62.2775C86.4793 63.4418 86.4889 64.6061 86.4988 65.8057C86.4933 67.0393 86.4877 68.273 86.482 69.5441C86.4707 72.9751 86.4775 76.4052 86.4918 79.8362C86.5028 83.5336 86.4909 87.2309 86.4819 90.9283C86.468 98.1741 86.4756 105.42 86.4906 112.665C86.5074 121.098 86.5042 129.53 86.5005 137.963C86.4946 153.005 86.5088 168.047 86.5334 183.09C86.5574 197.697 86.5645 212.303 86.554 226.91C86.5426 242.804 86.5406 258.698 86.5551 274.592C86.5566 276.286 86.5581 277.979 86.5596 279.673C86.5604 280.507 86.5611 281.34 86.5619 282.199C86.5667 288.081 86.5648 293.963 86.5605 299.845C86.5556 307.011 86.5616 314.176 86.5814 321.341C86.5913 324.999 86.5964 328.657 86.5886 332.315C86.5802 336.275 86.595 340.235 86.6123 344.194C86.6063 345.359 86.6003 346.523 86.5941 347.722C86.6025 348.779 86.611 349.835 86.6197 350.923C86.6207 351.837 86.6217 352.752 86.6228 353.694C87.078 356.477 87.7662 357.328 90 359C93.4288 360.143 96.2408 360.21 99.8555 360.316C100.848 360.348 100.848 360.348 101.86 360.379C103.969 360.445 106.078 360.504 108.188 360.562C109.619 360.606 111.051 360.649 112.482 360.693C115.988 360.8 119.494 360.902 123 361C120.245 363.786 117.493 366.525 114.52 369.078C113.913 369.599 113.307 370.12 112.682 370.656C112.065 371.182 111.448 371.708 110.812 372.25C110.184 372.791 109.556 373.333 108.908 373.891C95.632 385.25 96.2063 379 68 379C68 264.49 68 149.98 68 32Z" fill="url(#paint1_radial_520_121)"/>
<path d="M278 65C321.89 65 365.78 65 411 65C411 157.4 411 249.8 411 345C386.91 345 362.82 345 338 345C343.633 339.367 343.633 339.367 346.383 336.984C346.987 336.46 347.591 335.936 348.213 335.396C348.844 334.853 349.475 334.31 350.125 333.75C351.12 332.891 351.12 332.891 352.134 332.014C356.781 328.014 361.493 324.102 366.258 320.242C369.37 317.697 372.437 315.104 375.5 312.5C379.514 309.09 383.548 305.709 387.625 302.375C388.502 301.653 389.378 300.931 390.281 300.188C392.19 298.651 394.131 297.154 396.094 295.688C397.094 294.924 398.094 294.161 399.125 293.375C400.035 292.702 400.945 292.029 401.883 291.336C404.707 288.22 405.009 286.168 405 282C403.808 279.485 403.808 279.485 401.75 277.375C400.642 276.101 400.642 276.101 399.512 274.801C398.683 273.877 397.854 272.952 397 272C395.644 270.414 394.301 268.818 392.958 267.221C391.552 265.55 390.138 263.886 388.723 262.223C386.281 259.343 383.883 256.429 381.5 253.5C378.212 249.46 374.873 245.469 371.5 241.5C365.851 234.85 360.332 228.099 354.828 221.328C349.812 215.174 344.719 209.092 339.578 203.043C338.269 201.498 336.961 199.944 335.807 198.28C333.567 195.162 332.394 194.079 328.578 193.316C324.233 194.146 321.872 195.99 318.75 198.938C317.61 199.958 316.47 200.977 315.328 201.996C314.486 202.762 314.486 202.762 313.627 203.542C311.317 205.612 308.914 207.555 306.5 209.5C302.967 212.373 299.474 215.286 296.009 218.241C281.045 231 281.045 231 278 231C278 176.22 278 121.44 278 65ZM325 127C323.731 128.201 322.46 129.4 321.188 130.598C319.811 131.918 318.436 133.239 317.062 134.562C316.387 135.199 315.712 135.836 315.016 136.492C312.066 139.394 310.225 141.291 308.957 145.289C308.783 148.15 308.783 148.15 310.625 150.812C313.298 153.274 314.372 154.086 318 154C323.755 150.761 328.132 146.165 332.75 141.5C333.517 140.741 334.284 139.981 335.074 139.199C335.808 138.463 336.541 137.727 337.297 136.969C337.96 136.303 338.624 135.637 339.308 134.951C340.983 133.02 342.061 131.372 343 129C342.798 126.238 342.368 124.543 340.812 122.25C333.691 117.339 330.092 121.9 325 127ZM363.349 128.855C362.66 129.498 361.971 130.142 361.26 130.804C360.515 131.529 359.769 132.253 359 133C357.794 134.154 357.794 134.154 356.564 135.331C353.828 137.974 351.114 140.64 348.41 143.316C347.922 143.799 347.434 144.282 346.932 144.779C344.36 147.324 341.791 149.873 339.225 152.425C337.111 154.525 334.99 156.619 332.862 158.706C330.274 161.244 327.699 163.795 325.132 166.355C324.157 167.323 323.178 168.287 322.195 169.246C320.824 170.585 319.47 171.942 318.117 173.299C317.344 174.064 316.571 174.829 315.775 175.617C313.655 178.463 313.246 180.488 313 184C313.817 186.673 314.555 187.677 316.812 189.312C319.625 190.196 321.174 189.792 324 189C325.933 187.753 325.933 187.753 327.664 186.066C328.354 185.432 329.043 184.798 329.753 184.145C330.494 183.437 331.236 182.729 332 182C332.791 181.247 333.582 180.494 334.397 179.718C340.103 174.223 345.723 168.638 351.347 163.058C353.412 161.011 355.485 158.973 357.565 156.942C360.097 154.471 362.614 151.985 365.121 149.488C366.532 148.089 367.957 146.705 369.383 145.322C374.55 140.433 374.55 140.433 377.223 134.055C377.255 130.811 377.255 130.811 374.875 128.062C370.401 124.853 367.311 125.111 363.349 128.855Z" fill="url(#paint2_radial_520_121)"/>
<path d="M326 211C330.357 212.583 332.823 215.979 335.688 219.438C336.22 220.07 336.753 220.703 337.301 221.354C338.876 223.229 340.44 225.113 342 227C343.135 228.373 343.135 228.373 344.293 229.773C345.705 231.495 347.112 233.221 348.516 234.949C350.475 237.356 352.444 239.753 354.422 242.145C366.614 256.892 366.614 256.892 372 264C368.289 268.99 363.939 272.637 359.094 276.512C355.848 279.122 352.67 281.799 349.5 284.5C344.651 288.622 339.748 292.67 334.812 296.688C331.682 299.261 328.588 301.876 325.5 304.5C320.652 308.62 315.752 312.668 310.816 316.684C307.662 319.278 304.548 321.916 301.438 324.562C296.887 328.432 292.272 332.2 287.59 335.91C283.969 338.832 280.43 341.848 276.887 344.863C273.454 347.78 269.994 350.657 266.5 353.5C262.46 356.788 258.469 360.127 254.5 363.5C249.65 367.621 244.748 371.67 239.812 375.688C236.682 378.261 233.588 380.876 230.5 383.5C225.65 387.621 220.748 391.67 215.812 395.688C212.682 398.261 209.588 400.876 206.5 403.5C201.65 407.621 196.748 411.67 191.812 415.688C188.682 418.261 185.588 420.876 182.5 423.5C177.65 427.621 172.748 431.67 167.812 435.688C164.682 438.261 161.589 440.877 158.5 443.5C157.408 444.422 156.315 445.344 155.223 446.266C153.088 448.069 150.974 449.894 148.871 451.734C147.903 452.565 146.935 453.395 145.938 454.25C144.652 455.371 144.652 455.371 143.34 456.516C141 458 141 458 138.945 458.031C136.209 456.581 134.83 454.698 132.938 452.25C132.152 451.255 131.367 450.26 130.559 449.234C130.143 448.705 129.728 448.176 129.3 447.631C127.097 444.867 124.795 442.188 122.5 439.5C118.387 434.662 114.347 429.771 110.34 424.844C107.149 420.965 103.896 417.141 100.629 413.326C95 406.724 95 406.724 95 403C97.2305 400.809 97.2305 400.809 100.188 398.438C101.15 397.652 102.113 396.867 103.105 396.059C105.721 394.198 107.977 393.022 111 392C112.647 393.936 114.293 395.874 115.938 397.812C116.434 398.397 116.93 398.981 117.442 399.583C121.388 404.243 125.231 408.975 129.027 413.758C130.906 415.893 132.576 417.517 135 419C138.127 419.007 138.127 419.007 141 418C143.363 414.455 143.566 413.178 143 409C141.42 406.7 139.939 404.833 138.062 402.812C137.055 401.675 136.049 400.537 135.043 399.398C134.534 398.832 134.026 398.266 133.501 397.683C131.237 395.145 129.051 392.552 126.875 389.938C126.151 389.08 125.426 388.223 124.68 387.34C123 385 123 385 122 381C124.64 378.69 127.28 376.38 130 374C134.237 376.118 135.743 377.837 138.625 381.5C142.317 386.915 142.317 386.915 147.875 389.375C151.048 389.233 151.048 389.233 153.438 387.375C155.26 385.093 155.26 385.093 154.945 382.27C153.701 377.965 151.442 375.549 148.438 372.312C143 366.376 143 366.376 143 363C145.266 360.809 145.266 360.809 148.25 358.438C149.225 357.652 150.199 356.867 151.203 356.059C153.464 354.395 155.492 353.198 158 352C159.39 353.591 160.779 355.183 162.166 356.777C163.353 358.141 164.542 359.503 165.733 360.864C168.451 363.985 171.127 367.106 173.621 370.41C174.737 371.878 174.737 371.878 175.875 373.375C176.512 374.249 177.149 375.123 177.805 376.023C180.779 378.702 183.06 378.869 187 379C189.647 377.603 189.647 377.603 191 375C190.717 370.109 189.3 367.592 186.125 363.938C185.323 362.998 184.521 362.058 183.695 361.09C182.797 360.06 181.899 359.03 181 358C179.49 356.249 177.985 354.495 176.484 352.737C175.509 351.596 174.529 350.459 173.543 349.328C171.443 346.884 170.03 345.091 169 342C170.402 340.631 171.822 339.28 173.25 337.938C174.039 337.183 174.828 336.429 175.641 335.652C178 334 178 334 179.981 334.215C183.955 335.76 186.365 340.043 188.934 343.34C192.202 347.47 192.202 347.47 197 349C199.686 348.276 199.686 348.276 202 347C203.437 344.126 203.333 342.192 203 339C201.136 336.093 201.136 336.093 198.625 333.438C195.602 330.055 193.426 327.333 192 323C193.737 321.296 195.487 319.613 197.25 317.938C197.741 317.452 198.232 316.967 198.738 316.467C200.203 315.09 200.203 315.09 203 313C206.366 313.301 207.851 314.538 209.988 317.062C210.527 317.691 211.065 318.319 211.62 318.966C212.178 319.637 212.737 320.309 213.312 321C213.888 321.678 214.464 322.355 215.058 323.053C218.749 327.421 222.329 331.862 225.73 336.461C226.94 338.139 226.94 338.139 229 339C233.131 339.376 233.131 339.376 236.875 337.875C238.519 335.135 238.276 333.153 238 330C236.679 327.595 236.679 327.595 234.688 325.438C233.967 324.587 233.246 323.736 232.504 322.859C231.678 321.916 230.851 320.972 230 320C228.529 318.306 227.062 316.608 225.601 314.905C224.635 313.781 223.663 312.664 222.682 311.554C219.899 308.338 218.63 306.075 217 302C220.63 299.03 224.26 296.06 228 293C231.992 296.193 234.043 298.21 236.875 302.188C239.564 305.622 240.564 306.84 244.75 308.375C248.015 308.225 248.015 308.225 250.5 306.5C252.66 302.9 252.005 301.034 251 297C249.399 294.445 247.475 292.278 245.438 290.062C244.657 289.18 244.657 289.18 243.861 288.279C242.587 286.841 241.295 285.419 240 284C242.465 280.755 244.841 278.103 248.125 275.688C248.808 275.176 249.491 274.664 250.195 274.137C252 273 252 273 254 273C255.375 274.508 256.674 276.085 257.938 277.688C260.594 281.019 263.258 284.326 266.039 287.555C266.542 288.139 267.045 288.723 267.563 289.325C268.553 290.473 269.547 291.617 270.545 292.759C274 296.78 274 296.78 274 299C279.512 300.297 279.512 300.297 284.562 298.5C286.622 294.919 285.96 292.972 285 289C283.391 286.69 281.891 284.789 280 282.75C279.005 281.622 278.01 280.493 277.016 279.363C276.514 278.803 276.011 278.243 275.494 277.667C273.21 275.119 270.968 272.543 268.75 269.938C267.629 268.652 267.629 268.652 266.484 267.34C265 265 265 265 264.961 262.957C266.438 260.174 268.403 258.685 270.875 256.75C271.759 256.044 272.644 255.337 273.555 254.609C276 253 276 253 279 253C280.764 255.09 282.359 257.152 283.938 259.375C287.532 264.827 287.532 264.827 293 268C296.682 267.689 296.682 267.689 300 267C301.474 261.682 301.474 261.682 299.684 256.676C297.868 254.366 295.974 252.175 294 250C293.016 248.817 292.036 247.63 291.062 246.438C290.382 245.633 289.701 244.829 289 244C290.478 240.329 292.476 238.589 295.625 236.25C296.851 235.33 296.851 235.33 298.102 234.391C298.728 233.932 299.355 233.473 300 233C304.049 236.936 307.76 241.091 311.438 245.375C311.985 246.009 312.532 246.643 313.096 247.297C313.64 247.929 314.185 248.56 314.746 249.211C315.286 249.834 315.825 250.457 316.381 251.099C317.479 252.388 318.557 253.693 319.617 255.012C320.133 255.646 320.648 256.28 321.18 256.934C321.635 257.507 322.089 258.079 322.558 258.67C324.138 260.364 324.138 260.364 327.688 260.688C330.983 260.268 330.983 260.268 333 258.375C334.379 255.099 333.926 253.425 333 250C331.393 247.765 329.841 245.829 328 243.812C327.003 242.675 326.007 241.537 325.012 240.398C324.509 239.832 324.007 239.266 323.49 238.683C321.229 236.129 319.011 233.545 316.812 230.938C316.076 230.08 315.34 229.223 314.582 228.34C313 226 313 226 313 222C315.124 219.911 317.178 218.089 319.5 216.25C320.12 215.743 320.74 215.237 321.379 214.715C322.911 213.466 324.454 212.232 326 211Z" fill="url(#paint3_radial_520_121)"/>
<path d="M381 276C384.243 278.39 386.509 280.205 388 284C382.621 289.019 377.131 293.756 371.312 298.25C365.501 302.744 359.927 307.46 354.4 312.299C349.923 316.216 345.365 320.013 340.742 323.758C337.63 326.303 334.563 328.896 331.5 331.5C326.651 335.621 321.748 339.67 316.812 343.688C313.682 346.261 310.588 348.876 307.5 351.5C302.65 355.621 297.748 359.67 292.812 363.688C289.682 366.261 286.588 368.876 283.5 371.5C278.65 375.621 273.748 379.67 268.812 383.688C265.682 386.261 262.588 388.876 259.5 391.5C254.65 395.621 249.748 399.67 244.812 403.688C241.682 406.261 238.588 408.876 235.5 411.5C228.85 417.149 222.099 422.668 215.328 428.172C209.78 432.694 204.291 437.279 198.836 441.914C194.539 445.56 190.183 449.13 185.812 452.688C182.682 455.261 179.589 457.876 176.5 460.5C174.866 461.883 173.232 463.266 171.598 464.648C170.542 465.541 169.487 466.436 168.434 467.333C166.961 468.582 165.481 469.823 164 471.062C163.154 471.775 162.309 472.488 161.438 473.223C159.019 474.986 156.819 476.029 154 477C149.996 472.605 149.996 472.605 149 471C150.239 467.284 151.69 466.405 154.75 464C156.243 462.809 156.243 462.809 157.766 461.594C158.295 461.172 158.824 460.751 159.369 460.316C162.122 458.094 164.808 455.795 167.5 453.5C172.349 449.378 177.252 445.33 182.188 441.312C185.318 438.739 188.412 436.124 191.5 433.5C198.15 427.851 204.901 422.332 211.672 416.828C217.22 412.306 222.709 407.721 228.164 403.086C232.461 399.44 236.817 395.87 241.188 392.312C244.318 389.739 247.412 387.124 250.5 384.5C255.35 380.379 260.252 376.33 265.188 372.312C268.318 369.739 271.412 367.124 274.5 364.5C279.35 360.379 284.252 356.33 289.188 352.312C292.318 349.739 295.412 347.124 298.5 344.5C303.35 340.379 308.252 336.33 313.188 332.312C316.318 329.739 319.412 327.124 322.5 324.5C327.353 320.376 332.258 316.323 337.199 312.305C340.268 309.78 343.29 307.205 346.312 304.625C351.327 300.35 356.462 296.259 361.668 292.22C368.303 287.039 374.652 281.528 381 276Z" fill="url(#paint4_radial_520_121)"/>
<defs>
<radialGradient id="paint0_radial_520_121" cx="0" cy="0" r="1" gradientUnits="userSpaceOnUse" gradientTransform="translate(99.8411 146.666) rotate(45.8256) scale(202.425 205.964)">
<stop stop-color="#D5A450"/>
<stop offset="0.550605" stop-color="#FDDE83"/>
<stop offset="1" stop-color="#DEB158"/>
</radialGradient>
<radialGradient id="paint1_radial_520_121" cx="0" cy="0" r="1" gradientUnits="userSpaceOnUse" gradientTransform="translate(64.7586 133.24) rotate(24.5226) scale(433.637 333.359)">
<stop stop-color="#D5A450"/>
<stop offset="0.550605" stop-color="#FDDE83"/>
<stop offset="1" stop-color="#DEB158"/>
</radialGradient>
<radialGradient id="paint2_radial_520_121" cx="0" cy="0" r="1" gradientUnits="userSpaceOnUse" gradientTransform="translate(276.853 146.29) rotate(46.0012) scale(200.897 204.369)">
<stop stop-color="#D5A450"/>
<stop offset="0.550605" stop-color="#FDDE83"/>
<stop offset="1" stop-color="#DEB158"/>
</radialGradient>
<radialGradient id="paint3_radial_520_121" cx="0" cy="0" r="1" gradientUnits="userSpaceOnUse" gradientTransform="translate(92.6121 282.719) rotate(23.6861) scale(317.381 237.7)">
<stop stop-color="#D5A450"/>
<stop offset="0.550605" stop-color="#FDDE83"/>
<stop offset="1" stop-color="#DEB158"/>
</radialGradient>
<radialGradient id="paint4_radial_520_121" cx="0" cy="0" r="1" gradientUnits="userSpaceOnUse" gradientTransform="translate(146.94 334.355) rotate(22.4743) scale(271.385 195.159)">
<stop stop-color="#D5A450"/>
<stop offset="0.550605" stop-color="#FDDE83"/>
<stop offset="1" stop-color="#DEB158"/>
</radialGradient>
</defs>
</svg>
