<svg width="512" height="512" viewBox="0 0 512 512" fill="none" xmlns="http://www.w3.org/2000/svg">
<g clip-path="url(#clip0_520_86)">
<path d="M103 185C109.061 190.426 113.004 196.831 114 205C114.07 207.673 114.045 210.325 114 213C108.71 209.544 103.718 205.776 98.7069 201.926C93.9856 198.567 89.607 198.472 83.9999 199C78.6424 200.92 75.5415 203.917 72.9999 209C72.7247 211.465 72.7247 211.465 72.6874 214.25C72.65 215.183 72.6126 216.116 72.5741 217.078C73.4614 223.167 77.595 226.838 82.1874 230.562C82.6899 230.972 83.1924 231.382 83.7101 231.804C90.5209 237.31 97.5256 242.578 104.516 247.852C106 249 106 249 107 250C106.948 251.562 106.819 253.121 106.66 254.676C106.56 255.672 106.459 256.668 106.356 257.694C106.18 259.33 106.18 259.33 106 261C105.879 262.133 105.757 263.267 105.632 264.435C105.242 268.02 104.841 271.604 104.437 275.187C104.299 276.425 104.16 277.664 104.017 278.939C103.679 281.96 103.34 284.98 103 288C103.704 287.814 104.409 287.628 105.135 287.437C111.811 285.679 118.488 283.927 125.169 282.184C128.602 281.288 132.034 280.389 135.465 279.484C139.42 278.44 143.378 277.409 147.336 276.379C149.161 275.894 149.161 275.894 151.024 275.4C170.37 270.395 170.37 270.395 180 275C184.909 278.054 188.054 282.474 189.551 288.055C189.958 290.342 190.271 292.623 190.551 294.929C190.667 295.795 190.784 296.66 190.904 297.551C191.153 299.408 191.395 301.266 191.631 303.125C191.999 305.996 192.393 308.861 192.794 311.727C195.981 334.73 198.591 357.629 198.625 380.875C198.632 381.769 198.638 382.664 198.645 383.586C198.656 386.097 198.636 388.606 198.601 391.117C198.603 391.848 198.605 392.579 198.606 393.332C198.472 398.155 197.403 400.606 194 404C188.342 408.157 183.007 409.242 176 409C170.085 407.926 164.798 404.653 161 400C158.105 394.279 157.215 388.959 156.5 382.625C156.378 381.624 156.256 380.623 156.131 379.592C155.744 376.395 155.371 373.198 155 370C154.751 367.914 154.501 365.828 154.25 363.742C153.875 360.627 153.501 357.511 153.132 354.395C151.846 343.585 150.434 332.791 149 322C148.389 322.16 147.778 322.321 147.149 322.487C140.774 324.162 134.399 325.832 128.022 327.499C125.644 328.121 123.267 328.745 120.89 329.37C117.468 330.27 114.045 331.165 110.621 332.058C109.035 332.477 109.035 332.477 107.416 332.904C98.584 335.201 90.296 336.2 81.1874 336.25C79.7865 336.281 79.7865 336.281 78.3573 336.312C68.4311 336.367 59.5354 334.353 52.2226 327.281C44.3185 318.859 42.2742 310.281 40.9999 299C40.8878 298.112 40.7756 297.223 40.6601 296.308C37.8621 269.977 41.0341 244.151 48.9999 219C49.2464 218.219 49.493 217.438 49.747 216.634C53.8751 203.895 60.1506 192.347 72.3671 185.715C81.6509 181.468 93.866 179.094 103 185Z" fill="url(#paint0_radial_520_86)"/>
<path d="M274 262C350.23 262 426.46 262 505 262C505 281.47 505 300.94 505 321C428.77 321 352.54 321 274 321C274 301.53 274 282.06 274 262ZM382 281C381.934 284.843 382.181 286.992 384.625 290C388.116 291.47 390.391 290.984 394 290C396.167 288.5 396.167 288.5 397 286C396.934 282.21 396.832 279.921 394.25 277.062C388.625 274.406 385.57 276.065 382 281Z" fill="url(#paint1_radial_520_86)"/>
<path d="M204 347C280.23 347 356.46 347 435 347C435 366.47 435 385.94 435 406C358.77 406 282.54 406 204 406C204 386.53 204 367.06 204 347ZM313 363C311.626 364.156 311.626 364.156 311.75 367.312C312.009 371.135 312.187 372.478 315 375C317.357 376.088 317.357 376.088 320 376C323.486 374.378 324.843 373.235 327 370C326.915 366.013 326.474 364.474 323.625 361.625C319.154 358.857 317.087 360.311 313 363Z" fill="url(#paint2_radial_520_86)"/>
<path d="M267 166C347.85 166 428.7 166 512 166C512 169.63 512 173.26 512 177C509.03 177 506.06 177 503 177C503 200.1 503 223.2 503 247C505.97 247 508.94 247 512 247C512 250.63 512 254.26 512 258C431.15 258 350.3 258 267 258C267 254.37 267 250.74 267 247C270.3 247 273.6 247 277 247C277 223.9 277 200.8 277 177C273.7 177 270.4 177 267 177C267 173.37 267 169.74 267 166ZM286 177C286 200.1 286 223.2 286 247C354.97 247 423.94 247 495 247C495 223.9 495 200.8 495 177C426.03 177 357.06 177 286 177Z" fill="url(#paint3_radial_520_86)"/>
<path d="M60 336C60.562 336.144 61.124 336.289 61.7031 336.437C73.864 339.123 87.6641 339.318 99.8085 336.437C102.251 335.95 104.514 335.971 107 336C110.708 344.983 114.375 353.983 118 363C118.399 363.989 118.797 364.979 119.208 365.998C120.22 368.534 121.209 371.077 122.187 373.625C122.478 374.35 122.769 375.075 123.069 375.821C125.307 381.775 125.856 387.41 124.371 393.637C121.568 399.794 118.009 403.941 111.943 407.056C107.932 408.343 104.226 408.295 100.038 408.29C99.1447 408.297 98.2513 408.304 97.3309 408.311C94.382 408.33 91.4333 408.334 88.4843 408.336C86.428 408.342 84.3716 408.349 82.3152 408.356C78.0045 408.368 73.6939 408.372 69.3833 408.37C63.8743 408.37 58.3659 408.398 52.8572 408.432C48.6088 408.454 44.3605 408.458 40.1121 408.457C38.082 408.46 36.0519 408.468 34.0219 408.484C31.1741 408.504 28.3273 408.498 25.4794 408.486C24.65 408.497 23.8206 408.508 22.9661 408.52C16.1606 408.447 9.88671 406.725 4.84371 401.965C4.17855 400.961 4.17855 400.961 3.49996 399.937C3.03589 399.266 2.57183 398.594 2.09371 397.902C-1.29096 392.015 -0.96333 384.035 0.57808 377.578C3.02789 371.832 7.61435 368.866 13 366C16.0783 364.974 18.1657 364.879 21.3894 364.886C22.4903 364.886 23.5912 364.887 24.7255 364.887C25.913 364.892 27.1006 364.897 28.3242 364.902C29.5407 364.904 30.7572 364.905 32.0107 364.907C35.9029 364.912 39.7952 364.925 43.6875 364.937C46.3235 364.942 48.9596 364.947 51.5957 364.951C58.0638 364.962 64.5319 364.979 71 365C70.6667 364.157 70.3335 363.314 69.9902 362.445C68.7589 359.328 67.529 356.21 66.3002 353.092C65.7673 351.74 65.2338 350.389 64.6997 349.038C63.9336 347.1 63.1697 345.162 62.4062 343.223C61.9454 342.055 61.4845 340.887 61.0097 339.684C60 337 60 337 60 336Z" fill="url(#paint4_radial_520_86)"/>
<path d="M140.82 111.183C143 113 143 113 144.012 115.191C144.338 115.788 144.664 116.385 145 117C147.145 117.56 147.145 117.56 149.688 117.5C160.569 118.115 173.378 120.789 181.563 128.375C183 131 183 131 183.25 134.062C181.648 137.828 180.097 138.626 176.414 140.187C157.504 146.552 135.237 143.044 117 136C122.982 140.238 129.146 142.965 136.063 145.25C136.806 145.495 137.549 145.741 138.314 145.994C143.482 147.643 148.688 148.906 154 150C151.065 160.436 146.004 168.709 137 175C126.943 180.451 116.059 181.571 104.856 179.386C93.2669 175.623 85.4157 167.63 79.9727 156.992C76.3782 148.279 76.6837 136.836 79.625 128C83.8587 118.092 91.1003 110.352 100.898 105.812C115.008 100.357 128.361 103.112 140.82 111.183ZM113 133C113.33 133.66 113.66 134.32 114 135C114.66 134.67 115.32 134.34 116 134C115.01 133.67 114.02 133.34 113 133Z" fill="url(#paint5_radial_520_86)"/>
<path d="M92.9999 201C98.4697 203.716 102.959 207.218 107.625 211.125C109.029 212.282 110.434 213.439 111.84 214.594C112.536 215.166 113.232 215.738 113.949 216.328C116.992 218.808 120.079 221.228 123.187 223.625C124.192 224.401 125.196 225.177 126.23 225.976C128.75 227.817 131.295 229.447 134 231C134.998 230.331 135.995 229.662 137.023 228.973C140.109 226.906 143.202 224.85 146.297 222.797C149.871 220.425 153.429 218.034 156.977 215.623C159.281 214.061 161.594 212.513 163.908 210.966C165.045 210.202 166.179 209.432 167.309 208.658C178.672 200.876 178.672 200.876 186 201C191.23 202.569 193.977 204.465 197 209C198.136 211.271 198.231 212.723 198.312 215.25C198.369 216.371 198.369 216.371 198.426 217.516C197.607 222.291 194.682 225.716 190.834 228.494C189.595 229.322 188.348 230.137 187.094 230.941C186.42 231.387 185.747 231.832 185.053 232.29C182.876 233.726 180.688 235.144 178.5 236.562C177.001 237.545 175.503 238.53 174.005 239.515C170.34 241.921 166.667 244.314 162.991 246.704C160.159 248.547 157.335 250.404 154.512 252.262C147.826 256.646 147.826 256.646 144.605 258.734C143.998 259.128 143.392 259.523 142.766 259.929C137.747 262.973 133.863 264.03 128 263C124.62 261.486 121.889 259.298 119 257C118.456 256.571 117.911 256.141 117.351 255.699C114.161 253.181 110.991 250.639 107.832 248.082C104.406 245.315 100.935 242.613 97.4374 239.937C96.3972 239.133 95.3569 238.329 94.2851 237.5C91.9488 235.704 89.5764 233.969 87.1835 232.25C75.3426 223.603 75.3426 223.603 74.0702 217.125C73.9141 212.406 74.509 209.021 77.3515 205.168C81.8739 200.592 86.7652 199.571 92.9999 201Z" fill="url(#paint6_radial_520_86)"/>
<path d="M267 326C347.85 326 428.7 326 512 326C512 329.63 512 333.26 512 337C431.15 337 350.3 337 267 337C267 333.37 267 329.74 267 326Z" fill="url(#paint7_radial_520_86)"/>
<path d="M179.777 180.707C180.589 180.711 181.4 180.716 182.236 180.72C184.803 180.737 187.37 180.774 189.937 180.813C191.688 180.828 193.439 180.841 195.189 180.854C199.46 180.887 203.73 180.938 208 181C208 181.99 208 182.98 208 184C213.28 184.33 218.56 184.66 224 185C224 186.32 224 187.64 224 189C235.88 189 247.76 189 260 189C260 190.32 260 191.64 260 193C248.12 193 236.24 193 224 193C224 193.99 224 194.98 224 196C219.71 196 215.42 196 211 196C211 196.66 211 197.32 211 198C210.01 198 209.02 198 208 198C208 198.66 208 199.32 208 200C206.68 200 205.36 200 204 200C204 201.32 204 202.64 204 204C197.685 204.436 195.247 203.764 190 200C186.306 198.9 184.454 198.86 180.75 200C175.942 201.282 171.831 201.187 167 200C164.474 198.09 163.393 196.786 162 194C161.549 187.09 161.549 187.09 164 184C169.435 181.15 173.702 180.585 179.777 180.707ZM170 188C170 188.33 170 188.66 170 189C175.61 189 181.22 189 187 189C187 188.67 187 188.34 187 188C181.39 188 175.78 188 170 188ZM176 192C176 192.33 176 192.66 176 193C179.63 193 183.26 193 187 193C187 192.67 187 192.34 187 192C183.37 192 179.74 192 176 192Z" fill="url(#paint8_radial_520_86)"/>
<path d="M481 342C487.27 342 493.54 342 500 342C500.086 349.786 499.78 357.436 499.16 365.195C499.074 366.309 498.987 367.423 498.898 368.571C498.716 370.902 498.532 373.234 498.346 375.564C498.061 379.149 497.785 382.735 497.51 386.32C497.331 388.591 497.152 390.862 496.973 393.133C496.89 394.209 496.808 395.285 496.723 396.393C496.643 397.379 496.563 398.364 496.481 399.379C496.412 400.25 496.343 401.121 496.272 402.018C496 404 496 404 495 405C493.481 405.072 491.958 405.084 490.438 405.062C489.611 405.053 488.785 405.044 487.934 405.035C487.296 405.024 486.657 405.012 486 405C484.803 402.605 484.725 400.815 484.519 398.142C484.399 396.625 484.399 396.625 484.277 395.076C484.195 393.977 484.112 392.878 484.027 391.746C483.896 390.051 483.896 390.051 483.763 388.322C483.578 385.924 483.396 383.525 483.216 381.127C482.94 377.477 482.657 373.827 482.373 370.178C482.195 367.846 482.017 365.515 481.84 363.184C481.755 362.099 481.671 361.014 481.584 359.897C481.507 358.863 481.431 357.829 481.351 356.763C481.283 355.866 481.215 354.968 481.145 354.043C480.954 350.033 481 346.015 481 342Z" fill="url(#paint9_radial_520_86)"/>
<path d="M331 146C340.24 146 349.48 146 359 146C359 149.63 359 153.26 359 157C349.76 157 340.52 157 331 157C331 153.37 331 149.74 331 146Z" fill="url(#paint10_radial_520_86)"/>
<path d="M287 146C296.24 146 305.48 146 315 146C315 149.63 315 153.26 315 157C305.76 157 296.52 157 287 157C287 153.37 287 149.74 287 146Z" fill="url(#paint11_radial_520_86)"/>
<path d="M205 226C205 230.95 205 235.9 205 241C196.09 241 187.18 241 178 241C179.38 236.861 182.256 235.666 185.812 233.5C187.07 232.72 188.326 231.939 189.582 231.156C190.477 230.605 190.477 230.605 191.39 230.042C193.145 228.946 193.145 228.946 195.184 227.23C198.329 225.1 201.3 225.815 205 226Z" fill="url(#paint12_radial_520_86)"/>
</g>
<defs>
<radialGradient id="paint0_radial_520_86" cx="0" cy="0" r="1" gradientUnits="userSpaceOnUse" gradientTransform="translate(38.2903 247.533) rotate(35.1486) scale(204.02 195.514)">
<stop stop-color="#D5A450"/>
<stop offset="0.550605" stop-color="#FDDE83"/>
<stop offset="1" stop-color="#DEB158"/>
</radialGradient>
<radialGradient id="paint1_radial_520_86" cx="0" cy="0" r="1" gradientUnits="userSpaceOnUse" gradientTransform="translate(272.009 279.129) rotate(7.1609) scale(244.285 61.5102)">
<stop stop-color="#D5A450"/>
<stop offset="0.550605" stop-color="#FDDE83"/>
<stop offset="1" stop-color="#DEB158"/>
</radialGradient>
<radialGradient id="paint2_radial_520_86" cx="0" cy="0" r="1" gradientUnits="userSpaceOnUse" gradientTransform="translate(202.009 364.129) rotate(7.1609) scale(244.285 61.5102)">
<stop stop-color="#D5A450"/>
<stop offset="0.550605" stop-color="#FDDE83"/>
<stop offset="1" stop-color="#DEB158"/>
</radialGradient>
<radialGradient id="paint3_radial_520_86" cx="0" cy="0" r="1" gradientUnits="userSpaceOnUse" gradientTransform="translate(264.888 192.71) rotate(10.4653) scale(261.418 95.0601)">
<stop stop-color="#D5A450"/>
<stop offset="0.550605" stop-color="#FDDE83"/>
<stop offset="1" stop-color="#DEB158"/>
</radialGradient>
<radialGradient id="paint4_radial_520_86" cx="0" cy="0" r="1" gradientUnits="userSpaceOnUse" gradientTransform="translate(-1.6228 357.045) rotate(15.8411) scale(137.143 73.3185)">
<stop stop-color="#D5A450"/>
<stop offset="0.550605" stop-color="#FDDE83"/>
<stop offset="1" stop-color="#DEB158"/>
</radialGradient>
<radialGradient id="paint5_radial_520_86" cx="0" cy="0" r="1" gradientUnits="userSpaceOnUse" gradientTransform="translate(76.4349 125.465) rotate(19.7877) scale(118.092 76.5828)">
<stop stop-color="#D5A450"/>
<stop offset="0.550605" stop-color="#FDDE83"/>
<stop offset="1" stop-color="#DEB158"/>
</radialGradient>
<radialGradient id="paint6_radial_520_86" cx="0" cy="0" r="1" gradientUnits="userSpaceOnUse" gradientTransform="translate(72.9751 218.685) rotate(13.987) scale(134.493 64.2163)">
<stop stop-color="#D5A450"/>
<stop offset="0.550605" stop-color="#FDDE83"/>
<stop offset="1" stop-color="#DEB158"/>
</radialGradient>
<radialGradient id="paint7_radial_520_86" cx="0" cy="0" r="1" gradientUnits="userSpaceOnUse" gradientTransform="translate(264.888 329.194) rotate(1.26518) scale(257.132 11.5553)">
<stop stop-color="#D5A450"/>
<stop offset="0.550605" stop-color="#FDDE83"/>
<stop offset="1" stop-color="#DEB158"/>
</radialGradient>
<radialGradient id="paint8_radial_520_86" cx="0" cy="0" r="1" gradientUnits="userSpaceOnUse" gradientTransform="translate(160.923 187.493) rotate(6.6903) scale(103.775 24.4456)">
<stop stop-color="#D5A450"/>
<stop offset="0.550605" stop-color="#FDDE83"/>
<stop offset="1" stop-color="#DEB158"/>
</radialGradient>
<radialGradient id="paint9_radial_520_86" cx="0" cy="0" r="1" gradientUnits="userSpaceOnUse" gradientTransform="translate(480.831 360.311) rotate(58.4905) scale(38.1833 34.6366)">
<stop stop-color="#D5A450"/>
<stop offset="0.550605" stop-color="#FDDE83"/>
<stop offset="1" stop-color="#DEB158"/>
</radialGradient>
<radialGradient id="paint10_radial_520_86" cx="0" cy="0" r="1" gradientUnits="userSpaceOnUse" gradientTransform="translate(330.759 149.194) rotate(10.9373) scale(29.9229 11.3482)">
<stop stop-color="#D5A450"/>
<stop offset="0.550605" stop-color="#FDDE83"/>
<stop offset="1" stop-color="#DEB158"/>
</radialGradient>
<radialGradient id="paint11_radial_520_86" cx="0" cy="0" r="1" gradientUnits="userSpaceOnUse" gradientTransform="translate(286.759 149.194) rotate(10.9373) scale(29.9229 11.3482)">
<stop stop-color="#D5A450"/>
<stop offset="0.550605" stop-color="#FDDE83"/>
<stop offset="1" stop-color="#DEB158"/>
</radialGradient>
<radialGradient id="paint12_radial_520_86" cx="0" cy="0" r="1" gradientUnits="userSpaceOnUse" gradientTransform="translate(177.767 230.167) rotate(15.541) scale(29.4051 15.4526)">
<stop stop-color="#D5A450"/>
<stop offset="0.550605" stop-color="#FDDE83"/>
<stop offset="1" stop-color="#DEB158"/>
</radialGradient>
<clipPath id="clip0_520_86">
<rect width="512" height="512" fill="white"/>
</clipPath>
</defs>
</svg>
