<svg width="395" height="258" viewBox="0 0 395 258" fill="none" xmlns="http://www.w3.org/2000/svg">
<path d="M0 0L1.76824 0.232941L5.01 1.39765L12.3776 3.96L19.1559 6.28941L26.2288 8.61882L35.3647 11.6471L44.2059 14.4424L56.2888 18.4024L63.3618 20.7318L71.0241 23.2941L81.3388 26.7882L102.558 33.7765L110.809 36.3388L119.651 39.1341L127.018 41.6965L129.965 43.3271L132.028 45.6565L135.565 50.7812L139.691 56.6047L144.111 63.1271L148.237 68.7176L152.658 75.0071L156.194 79.8988L159.731 85.0235L164.446 91.7788L168.572 97.3694L171.519 101.329L171.814 102.028L172.698 101.795L175.645 90.6141L177.118 85.4894L179.181 76.4047L182.128 65.2235L183.602 60.3318L184.486 58.9341L186.549 57.5365L190.675 55.6729L197.158 53.5765L198.926 53.8094L203.936 55.9059L210.125 58.7012L215.43 61.0306L222.798 64.0588L224.861 65.2235V65.6894L216.609 68.4847L210.715 70.3482L209.536 70.5812L210.42 74.0753L217.493 90.8471L221.619 100.165L222.503 101.562H223.387L226.334 97.8353L229.871 92.9435L233.112 88.5176L237.533 82.2282L242.248 75.4729L244.901 71.7459L247.848 67.7859L251.679 62.4282L255.215 57.3035L263.467 45.6565L265.825 43.0941L268.477 41.6965L276.729 38.9012L287.633 35.4071L300.895 30.9812L313.272 26.7882L330.365 21.1976L340.385 17.9365L346.869 15.84L360.72 11.1812L366.614 9.31765L372.214 7.45412L381.055 4.42588L388.717 1.63059L394.316 0L394.906 0.465882L391.369 3.02824L387.244 5.59059L382.823 8.38588L375.161 13.0447L371.329 15.6071L367.498 17.9365L363.667 20.4988L359.836 22.8282L356.299 25.1576L353.352 27.0212L349.226 29.5835L345.985 31.68L341.269 34.7082L336.849 37.5035L333.607 39.6L329.776 41.9294L327.124 43.7929L323.292 46.1224L319.166 48.6847L315.041 51.48L310.915 54.0424L308.262 55.9059L304.431 58.2353L301.189 60.3318L298.242 62.1953L294.411 64.5247L290.58 67.0871L287.633 68.9506L284.391 71.28L280.855 76.1718L276.729 81.7624L272.898 86.8871L269.656 91.3129L267.004 94.8071L262.583 100.864L257.573 107.386L249.321 118.8L244.901 124.856L241.954 128.816L238.417 133.708L235.765 137.202L230.755 143.958L228.397 146.986L223.682 153.275L221.029 156.769L216.904 162.36L213.072 167.718L210.42 171.212L205.999 177.501L201.874 183.092L198.337 188.449L197.453 188.915L194.506 185.188L189.496 177.734L185.37 172.144L182.423 167.951L180.065 164.922L175.645 158.866L172.403 154.44L169.456 150.48L164.741 144.191L162.088 140.696L157.962 135.106L154.721 130.68L150.005 124.391L145.879 118.567L142.048 113.442L138.512 108.318L133.502 101.795L129.376 96.2047L124.955 90.1482L116.704 78.9671L113.756 75.0071L111.104 71.7459L108.452 69.4165L105.21 67.32L101.379 64.7576L93.1271 59.6329L89.2959 57.0706L85.17 54.7412L81.6335 52.1788L77.5077 49.6165L73.6765 47.0541L70.14 44.9576L66.3088 42.3953L62.1829 39.8329L57.4677 36.8047L52.4576 33.5435L48.6265 31.2141L45.3847 29.1176L41.2588 26.3224L37.1329 23.76L32.4176 20.7318L27.4076 17.7035L23.8712 15.3741L21.2188 13.7435L16.7982 10.9482L12.0829 8.15294L8.25177 5.59059L5.01 3.49412L1.47353 1.39765L0 0.465882V0Z" fill="url(#paint0_radial_13_16)"/>
<path d="M381.644 24.2258H382.528L381.939 25.3905L378.402 29.1176L375.455 32.1458L372.803 34.9411L369.561 38.2023L366.909 40.9976L358.068 50.0823L354.531 53.8094L351.584 56.8376L345.395 63.36L342.154 66.6211L339.796 69.1835L335.965 72.9105L333.312 75.4729L328.302 78.5011L321.524 81.9952L316.514 84.5576L307.084 89.4494L301.484 92.2447L296.179 95.04L286.749 100.165L283.507 101.795L282.034 102.261L282.623 100.863L285.275 96.9035L289.106 92.0117L292.054 88.0517L294.706 84.5576L298.242 80.1317L300.011 78.2682L302.663 76.1717L309.146 71.9788L314.156 68.7176L317.988 66.1552L320.935 64.2917L324.176 62.1952L332.428 56.6047L336.259 54.0423L339.501 51.9458L343.332 49.3835L347.458 46.5882L350.7 44.4917L354.826 41.6964L358.068 39.5999L362.194 36.8047L366.614 33.7764L369.561 31.6799L372.803 29.5835L376.339 27.2541L381.055 24.4588L381.644 24.2258Z" fill="url(#paint1_radial_13_16)"/>
<path d="M12.0829 23.76L13.5565 24.2259L18.5665 27.2541L22.3977 29.8165L24.7553 31.4471L28.2918 34.0094L32.1229 36.5718L35.07 38.4353L40.08 41.6965L43.9112 44.2588L47.1529 46.3553L50.9841 48.9177L54.2259 51.0141L58.0571 53.5765L63.0671 56.8377L66.3088 58.9341L70.14 61.4965L74.2659 64.0588L77.2129 66.1553L80.4547 68.2518L85.4647 71.5129L88.7065 73.6094L91.9482 75.9388L94.3059 77.5694L95.7794 78.7341L97.8424 81.0635L100.789 84.7906L104.031 89.2165L107.273 93.4094L109.925 97.1365L112.283 100.398L113.167 101.795V102.261L111.694 101.795L103.736 97.6024L99.0212 95.04L89.5906 90.1482L83.9912 87.3529L79.5706 85.0235L72.7924 81.5294L67.4876 78.7341L62.7724 75.9388L60.12 73.8424L57.1729 70.8141L53.9312 67.5529L49.8053 63.1271L45.9741 59.1671L40.6694 53.5765L36.5435 49.3835L33.0071 45.6565L24.1659 36.5718L20.6294 33.0777L17.9771 30.2824L13.8512 26.0894L12.0829 23.993V23.76Z" fill="url(#paint2_radial_13_16)"/>
<path d="M211.304 194.04L213.367 195.438L216.904 199.398L220.735 203.591L224.271 207.551L227.218 210.579L231.049 214.539L235.175 218.732L243.132 227.118L244.311 228.748L244.016 230.379L241.069 233.873L238.712 236.435L232.818 243.424L228.986 247.849L226.924 249.946H226.334L225.45 247.617L221.029 231.311L218.082 220.362L215.43 210.346L212.188 199.165L211.009 194.972L211.304 194.04Z" fill="url(#paint3_radial_13_16)"/>
<path d="M197.453 205.92L198.337 206.153L199.221 210.113L203.936 231.078L205.999 238.765L208.357 249.48L209.831 255.536V257.167L209.536 257.4L205.999 257.633L185.665 257.4L184.486 257.167L184.781 254.139L186.844 246.219L192.148 225.254L194.506 215.471L196.864 206.852L197.453 205.92Z" fill="url(#paint4_radial_13_16)"/>
<path d="M182.423 193.807H183.012L182.718 195.67L180.36 204.522L177.708 213.607L175.055 223.623L171.519 236.901L169.456 244.588L167.982 249.713H167.098L164.741 247.383L161.204 242.957L158.846 240.162L155.015 235.969L152.068 232.475L150.3 230.146V228.748L152.068 226.419L155.605 222.692L159.436 218.732L163.562 214.306L166.804 210.812L174.466 202.426L177.413 199.397L180.655 195.67L182.423 193.807Z" fill="url(#paint5_radial_13_16)"/>
<path d="M72.2029 92.4775L74.2659 93.1764L81.9282 96.6705L88.4118 99.9317L95.7794 103.426L101.968 106.454L108.452 109.482L114.051 112.278L116.998 113.675L120.24 115.306L123.482 117.169L125.545 119.033L129.965 124.856L134.681 131.146L138.806 136.27L143.227 142.094L145.585 145.355L145.879 146.52L144.406 145.821L140.575 143.259L138.512 141.628L136.154 139.998L130.555 135.572L128.197 133.941L124.366 130.913L121.124 128.816L117.588 126.021L115.23 124.39L111.694 121.595L109.336 119.965L104.621 116.47L102.263 114.84L97.5476 111.346L93.7165 108.55L91.3588 106.92L88.4118 104.823L84.5806 102.028L81.0441 99.4658L76.3288 95.9717L73.3818 93.8752L72.2029 92.9434V92.4775Z" fill="url(#paint6_radial_13_16)"/>
<path d="M320.935 93.4094H321.524L320.935 94.3412L318.872 96.2047L315.63 98.3012L312.683 100.631L310.325 102.261L307.968 104.125L305.61 105.755L301.779 108.551L298.537 110.647L293.527 114.374L290.58 116.471L285.865 119.965L282.034 122.76L278.497 125.322L275.255 127.885L272.898 129.515L269.066 132.544L266.709 134.174L264.351 136.038L261.994 137.668L257.278 141.162L254.036 143.725L251.679 145.355L250.205 146.287L249.321 146.054L252.563 141.395L255.215 137.901L258.457 133.708L262.288 128.816L266.709 122.76L269.951 118.8L272.308 116.704L278.202 113.675L285.57 110.181L292.054 107.153L300.895 102.96L307.968 99.4659L311.209 97.8353L317.104 95.04L320.935 93.4094Z" fill="url(#paint7_radial_13_16)"/>
<defs>
<radialGradient id="paint0_radial_13_16" cx="0" cy="0" r="1" gradientUnits="userSpaceOnUse" gradientTransform="translate(197.453 94.4576) rotate(90) scale(94.4576 197.453)">
<stop stop-color="#D5A450"/>
<stop offset="0.49" stop-color="#FDDE83"/>
<stop offset="1" stop-color="#DEB158"/>
</radialGradient>
<radialGradient id="paint1_radial_13_16" cx="0" cy="0" r="1" gradientUnits="userSpaceOnUse" gradientTransform="translate(332.281 63.2435) rotate(90) scale(39.0177 50.2474)">
<stop stop-color="#D5A450"/>
<stop offset="0.49" stop-color="#FDDE83"/>
<stop offset="1" stop-color="#DEB158"/>
</radialGradient>
<radialGradient id="paint2_radial_13_16" cx="0" cy="0" r="1" gradientUnits="userSpaceOnUse" gradientTransform="translate(62.625 63.0106) rotate(90) scale(39.2506 50.5421)">
<stop stop-color="#D5A450"/>
<stop offset="0.49" stop-color="#FDDE83"/>
<stop offset="1" stop-color="#DEB158"/>
</radialGradient>
<radialGradient id="paint3_radial_13_16" cx="0" cy="0" r="1" gradientUnits="userSpaceOnUse" gradientTransform="translate(227.66 221.993) rotate(90) scale(27.9529 16.6509)">
<stop stop-color="#D5A450"/>
<stop offset="0.49" stop-color="#FDDE83"/>
<stop offset="1" stop-color="#DEB158"/>
</radialGradient>
<radialGradient id="paint4_radial_13_16" cx="0" cy="0" r="1" gradientUnits="userSpaceOnUse" gradientTransform="translate(197.158 231.776) rotate(90) scale(25.8565 12.6724)">
<stop stop-color="#D5A450"/>
<stop offset="0.49" stop-color="#FDDE83"/>
<stop offset="1" stop-color="#DEB158"/>
</radialGradient>
<radialGradient id="paint5_radial_13_16" cx="0" cy="0" r="1" gradientUnits="userSpaceOnUse" gradientTransform="translate(166.656 221.76) rotate(90) scale(27.9529 16.3562)">
<stop stop-color="#D5A450"/>
<stop offset="0.49" stop-color="#FDDE83"/>
<stop offset="1" stop-color="#DEB158"/>
</radialGradient>
<radialGradient id="paint6_radial_13_16" cx="0" cy="0" r="1" gradientUnits="userSpaceOnUse" gradientTransform="translate(109.041 119.499) rotate(90) scale(27.0212 36.8382)">
<stop stop-color="#D5A450"/>
<stop offset="0.49" stop-color="#FDDE83"/>
<stop offset="1" stop-color="#DEB158"/>
</radialGradient>
<radialGradient id="paint7_radial_13_16" cx="0" cy="0" r="1" gradientUnits="userSpaceOnUse" gradientTransform="translate(285.423 119.848) rotate(90) scale(26.4388 36.1015)">
<stop stop-color="#D5A450"/>
<stop offset="0.49" stop-color="#FDDE83"/>
<stop offset="1" stop-color="#DEB158"/>
</radialGradient>
</defs>
</svg>
