<svg width="512" height="512" viewBox="0 0 512 512" fill="none" xmlns="http://www.w3.org/2000/svg">
<g clip-path="url(#clip0_520_101)">
<path d="M156.741 463.859C158.061 463.855 158.061 463.855 159.407 463.85C162.356 463.842 165.304 463.84 168.253 463.839C170.367 463.834 172.481 463.829 174.595 463.824C180.339 463.811 186.083 463.804 191.827 463.8C195.417 463.797 199.006 463.793 202.595 463.788C213.828 463.774 225.06 463.765 236.292 463.761C249.255 463.756 262.217 463.739 275.179 463.71C285.201 463.688 295.223 463.678 305.245 463.677C311.23 463.676 317.214 463.67 323.199 463.652C328.83 463.636 334.46 463.633 340.091 463.642C342.154 463.643 344.218 463.639 346.281 463.629C349.105 463.616 351.928 463.622 354.751 463.632C355.562 463.624 356.373 463.616 357.208 463.608C364.111 463.667 370.799 465.033 376.375 469.312C386.142 479.312 383 491.137 383 505C299.18 505 215.36 505 129 505C129 476 129 476 137 468C143.441 464.109 149.364 463.852 156.741 463.859Z" fill="url(#paint0_radial_520_101)"/>
<path d="M388 277C426.61 277 465.22 277 505 277C513.683 334.057 513.683 334.057 510 342.688C506.618 347.053 502.04 349.553 496.58 350.356C493.832 350.49 491.112 350.495 488.361 350.454C487.326 350.455 486.291 350.455 485.225 350.456C481.827 350.453 478.429 350.422 475.031 350.391C472.666 350.383 470.301 350.377 467.936 350.373C461.728 350.358 455.521 350.319 449.313 350.275C442.972 350.234 436.63 350.215 430.289 350.195C417.859 350.152 405.43 350.082 393 350C390.887 325.701 389.461 301.347 388 277Z" fill="url(#paint1_radial_520_101)"/>
<path d="M6.99998 277C45.61 277 84.22 277 124 277C123.361 287.931 122.721 298.863 122.062 310.125C121.763 315.29 121.763 315.29 121.457 320.559C121.296 323.292 121.134 326.025 120.973 328.758C120.932 329.463 120.892 330.168 120.85 330.894C120.73 332.986 120.606 335.077 120.481 337.168C120.412 338.345 120.343 339.522 120.272 340.735C120.011 343.868 119.565 346.908 119 350C105.283 350.07 91.566 350.123 77.8488 350.155C71.4794 350.171 65.1101 350.192 58.7407 350.226C52.594 350.259 46.4474 350.277 40.3005 350.285C37.9554 350.29 35.6102 350.301 33.2651 350.317C29.9805 350.339 26.6963 350.342 23.4116 350.341C22.442 350.351 21.4724 350.362 20.4734 350.373C14.3236 350.345 9.80039 349.636 5.1367 345.246C4.41934 344.351 4.41934 344.351 3.68748 343.438C2.95078 342.538 2.95078 342.538 2.1992 341.621C-2.34388 335.48 -1.7643e-05 333.698 -1.7643e-05 323C3.46498 300.23 3.46498 300.23 6.99998 277Z" fill="url(#paint2_radial_520_101)"/>
<path d="M488 177C488.99 177.495 488.99 177.495 490 178C490.551 180.454 490.971 182.834 491.329 185.318C491.446 186.084 491.563 186.85 491.684 187.639C492.072 190.182 492.446 192.728 492.82 195.273C493.086 197.036 493.352 198.799 493.619 200.561C494.177 204.261 494.73 207.962 495.278 211.663C495.981 216.411 496.693 221.158 497.41 225.904C498.091 230.423 498.769 234.942 499.445 239.461C499.575 240.326 499.705 241.191 499.839 242.083C500.205 244.529 500.568 246.976 500.93 249.423C501.094 250.513 501.094 250.513 501.261 251.624C501.676 254.45 502 257.139 502 260C464.05 260 426.1 260 387 260C386.34 250.265 385.68 240.53 385 230.5C384.791 227.461 384.582 224.422 384.367 221.291C384.203 218.829 384.039 216.368 383.875 213.906C383.789 212.671 383.702 211.436 383.613 210.163C383.015 201.047 383 192.186 383 183C417.65 183 452.3 183 488 183C488 181.02 488 179.04 488 177Z" fill="url(#paint3_radial_520_101)"/>
<path d="M23.7941 182.877C24.9763 182.878 24.9763 182.878 26.1824 182.88C27.0841 182.878 27.9858 182.877 28.9148 182.875C30.4102 182.881 30.4102 182.881 31.9358 182.886C32.9796 182.886 34.0233 182.886 35.0988 182.886C38.5672 182.887 42.0355 182.894 45.5039 182.902C47.9014 182.904 50.299 182.906 52.6965 182.907C59.021 182.91 65.3454 182.92 71.6698 182.931C78.1178 182.941 84.5657 182.946 91.0137 182.951C103.676 182.962 116.338 182.979 129 183C129.107 193.344 128.847 203.58 128.125 213.906C128.046 215.089 127.968 216.272 127.887 217.491C127.597 221.828 127.298 226.164 127 230.5C126.34 240.235 125.68 249.97 125 260C87.05 260 49.1 260 10 260C13.4685 233.408 13.4685 233.408 15.0078 223.195C15.1788 222.054 15.3497 220.912 15.5258 219.736C15.8792 217.383 16.2337 215.029 16.5894 212.676C17.1359 209.053 17.6754 205.429 18.2148 201.805C18.5621 199.497 18.9097 197.19 19.2578 194.883C19.4182 193.801 19.5786 192.719 19.7439 191.604C19.8943 190.617 20.0447 189.63 20.1997 188.614C20.3306 187.744 20.4614 186.874 20.5962 185.977C21.1058 183.482 21.2341 183.052 23.7941 182.877Z" fill="url(#paint4_radial_520_101)"/>
<path d="M264 277C299.64 277 335.28 277 372 277C372.99 291.448 372.99 291.448 374 306.188C374.313 310.709 374.313 310.709 374.633 315.321C374.797 317.749 374.961 320.177 375.125 322.605C375.211 323.834 375.298 325.063 375.387 326.33C375.468 327.546 375.549 328.763 375.633 330.016C375.739 331.572 375.739 331.572 375.848 333.159C376.07 338.768 376 344.386 376 350C339.04 350 302.08 350 264 350C264 325.91 264 301.82 264 277Z" fill="url(#paint5_radial_520_101)"/>
<path d="M140 277C175.64 277 211.28 277 248 277C248 301.09 248 325.18 248 350C211.04 350 174.08 350 136 350C136 335.375 136 335.375 136.367 330.016C136.448 328.8 136.53 327.583 136.613 326.33C136.7 325.101 136.786 323.872 136.875 322.605C136.954 321.439 137.032 320.273 137.113 319.071C137.404 314.776 137.702 310.482 138 306.188C138.66 296.556 139.32 286.924 140 277Z" fill="url(#paint6_radial_520_101)"/>
<path d="M264 183C297.66 183 331.32 183 366 183C367.833 208.655 369.533 234.321 371 260C335.69 260 300.38 260 264 260C264 234.59 264 209.18 264 183Z" fill="url(#paint7_radial_520_101)"/>
<path d="M146 183C179.66 183 213.32 183 248 183C248 208.41 248 233.82 248 260C212.69 260 177.38 260 141 260C141.639 249.151 142.279 238.302 142.938 227.125C143.137 223.718 143.337 220.311 143.543 216.801C143.704 214.078 143.866 211.356 144.027 208.633C144.068 207.938 144.108 207.244 144.15 206.528C144.271 204.447 144.395 202.366 144.519 200.286C144.588 199.118 144.657 197.95 144.728 196.746C145.061 192.157 145.542 187.579 146 183Z" fill="url(#paint8_radial_520_101)"/>
<path d="M210 367C240.36 367 270.72 367 302 367C302 393.73 302 420.46 302 448C271.64 448 241.28 448 210 448C210 421.27 210 394.54 210 367Z" fill="url(#paint9_radial_520_101)"/>
<path d="M377 96.9999C390.021 96.9768 403.042 96.959 416.063 96.9481C422.109 96.9429 428.155 96.9358 434.2 96.9245C440.029 96.9136 445.858 96.9076 451.687 96.905C453.916 96.9032 456.146 96.8996 458.375 96.8942C461.486 96.887 464.596 96.8859 467.707 96.8864C468.638 96.8828 469.57 96.8792 470.53 96.8755C476.886 96.8859 476.886 96.8859 478 97.9999C478.39 100.038 478.722 102.088 479.032 104.14C479.178 105.101 479.178 105.101 479.328 106.082C479.651 108.209 479.968 110.337 480.285 112.465C480.508 113.938 480.731 115.412 480.954 116.885C481.421 119.978 481.886 123.071 482.348 126.164C482.942 130.134 483.54 134.103 484.14 138.071C484.601 141.116 485.059 144.16 485.517 147.205C485.737 148.669 485.958 150.132 486.179 151.596C486.487 153.641 486.793 155.685 487.098 157.73C487.273 158.895 487.447 160.06 487.627 161.261C488 164 488 164 488 166C452.69 166 417.38 166 381 166C380.34 155.543 379.68 145.086 379 134.312C378.791 131.017 378.582 127.721 378.367 124.325C378.203 121.713 378.039 119.101 377.875 116.488C377.832 115.813 377.789 115.138 377.745 114.442C377.617 112.442 377.492 110.442 377.367 108.443C377.296 107.317 377.225 106.191 377.152 105.031C377.017 102.347 376.971 99.6868 377 96.9999Z" fill="url(#paint10_radial_520_101)"/>
<path d="M41.4706 96.8754C42.402 96.879 43.3335 96.8826 44.2932 96.8863C45.2687 96.8861 46.2442 96.886 47.2493 96.8858C50.4904 96.8865 53.7315 96.8943 56.9727 96.9021C59.2133 96.904 61.4538 96.9054 63.6944 96.9064C69.6046 96.9102 75.5147 96.9201 81.4249 96.9311C87.4506 96.9413 93.4763 96.9459 99.502 96.951C111.335 96.9617 123.167 96.9788 135 96.9998C134.754 101.844 134.506 106.688 134.255 111.532C134.171 113.163 134.088 114.795 134.005 116.426C133.167 132.963 132.066 149.472 131 166C95.69 166 60.38 166 24 166C25.6294 154.8 27.2587 143.601 28.9375 132.062C29.4505 128.521 29.9634 124.98 30.4919 121.332C31.1222 117.02 31.1222 117.02 31.418 115.004C31.6245 113.591 31.8293 112.178 32.0329 110.764C32.3409 108.627 32.6541 106.491 32.9685 104.355C33.1439 103.15 33.3194 101.944 33.5001 100.702C34.4262 95.6964 36.8531 96.8829 41.4706 96.8754Z" fill="url(#paint11_radial_520_101)"/>
<path d="M372 7.00005C381.884 6.93034 391.768 6.87713 401.653 6.84461C406.243 6.829 410.833 6.80784 415.423 6.77373C419.858 6.74098 424.293 6.72316 428.728 6.71541C430.415 6.7099 432.102 6.69913 433.789 6.68286C453.761 6.49797 453.761 6.49797 460.875 12.375C464.446 16.7862 466.328 20.3098 467.167 25.952C467.347 27.1263 467.527 28.3007 467.712 29.5107C467.894 30.7692 468.075 32.0277 468.262 33.3243C468.457 34.622 468.653 35.9198 468.854 37.2568C469.372 40.6955 469.876 44.1359 470.378 47.577C470.791 50.3912 471.213 53.2041 471.635 56.0169C472.507 61.8219 473.371 67.6281 474.222 73.4363C474.372 74.4649 474.523 75.4935 474.679 76.5533C475 79 475 79 475 81C442.33 81 409.66 81 376 81C375.34 71.5744 374.68 62.1488 374 52.4375C373.791 49.4939 373.583 46.5502 373.367 43.5174C373.203 41.1353 373.039 38.7532 372.875 36.3711C372.789 35.174 372.702 33.9768 372.613 32.7433C372.029 24.1418 371.905 15.6169 372 7.00005Z" fill="url(#paint12_radial_520_101)"/>
<path d="M70.636 6.88631C71.3877 6.88617 72.1395 6.88602 72.914 6.88587C75.3867 6.88657 77.8593 6.89433 80.332 6.90218C82.0512 6.90405 83.7705 6.90547 85.4897 6.90647C90.0057 6.91028 94.5216 6.9201 99.0376 6.93117C103.649 6.94142 108.261 6.94597 112.873 6.95101C121.915 6.96172 130.958 6.97878 140 6.99984C140.109 16.8395 139.833 26.5515 139.125 36.3709C139.046 37.5157 138.968 38.6604 138.887 39.8398C138.597 44.0394 138.298 48.2383 138 52.4373C137.34 61.863 136.68 71.2886 136 80.9998C103.33 80.9998 70.66 80.9998 37 80.9998C46.3339 15.6622 46.3339 15.6622 52.707 10.66C58.5032 7.1116 64.0195 6.85243 70.636 6.88631Z" fill="url(#paint13_radial_520_101)"/>
<path d="M264 7C294.03 7 324.06 7 355 7C357.38 36.7462 357.38 36.7462 358.125 48.5C358.211 49.771 358.298 51.042 358.387 52.3516C358.998 61.9605 359 71.3212 359 81C327.65 81 296.3 81 264 81C264 56.58 264 32.16 264 7Z" fill="url(#paint14_radial_520_101)"/>
<path d="M157 7C187.03 7 217.06 7 248 7C248 31.42 248 55.84 248 81C216.65 81 185.3 81 153 81C153 61.4399 153 61.4399 153.621 52.1562C153.685 51.1362 153.75 50.1162 153.816 49.0653C153.95 46.9447 154.087 44.8243 154.227 42.7041C154.439 39.4776 154.643 36.2506 154.846 33.0234C154.979 30.9427 155.112 28.8619 155.246 26.7812C155.307 25.8311 155.367 24.8809 155.429 23.902C155.489 22.9965 155.549 22.0911 155.611 21.1582C155.662 20.3767 155.713 19.5953 155.766 18.7902C156.096 14.8525 156.564 10.9274 157 7Z" fill="url(#paint15_radial_520_101)"/>
<path d="M264 97C296.01 97 328.02 97 361 97C361.99 112.685 361.99 112.685 363 128.688C363.313 133.631 363.313 133.631 363.633 138.675C363.797 141.287 363.961 143.899 364.125 146.512C364.168 147.187 364.211 147.862 364.255 148.558C364.383 150.558 364.508 152.558 364.633 154.557C364.739 156.246 364.739 156.246 364.848 157.969C364.982 160.643 365 163.323 365 166C331.67 166 298.34 166 264 166C264 143.23 264 120.46 264 97Z" fill="url(#paint16_radial_520_101)"/>
<path d="M151 97C183.01 97 215.02 97 248 97C248 119.77 248 142.54 248 166C214.67 166 181.34 166 147 166C148.211 142.993 149.517 119.991 151 97Z" fill="url(#paint17_radial_520_101)"/>
</g>
<defs>
<radialGradient id="paint0_radial_520_101" cx="0" cy="0" r="1" gradientUnits="userSpaceOnUse" gradientTransform="translate(126.806 475.625) rotate(4.57438) scale(267.871 43.3536)">
<stop stop-color="#D5A450"/>
<stop offset="0.550605" stop-color="#FDDE83"/>
<stop offset="1" stop-color="#DEB158"/>
</radialGradient>
<radialGradient id="paint1_radial_520_101" cx="0" cy="0" r="1" gradientUnits="userSpaceOnUse" gradientTransform="translate(386.928 298.332) rotate(16.209) scale(135.857 74.1361)">
<stop stop-color="#D5A450"/>
<stop offset="0.550605" stop-color="#FDDE83"/>
<stop offset="1" stop-color="#DEB158"/>
</radialGradient>
<radialGradient id="paint2_radial_520_101" cx="0" cy="0" r="1" gradientUnits="userSpaceOnUse" gradientTransform="translate(-1.67868 298.302) rotate(16.1538) scale(136.117 74.0524)">
<stop stop-color="#D5A450"/>
<stop offset="0.550605" stop-color="#FDDE83"/>
<stop offset="1" stop-color="#DEB158"/>
</radialGradient>
<radialGradient id="paint3_radial_520_101" cx="0" cy="0" r="1" gradientUnits="userSpaceOnUse" gradientTransform="translate(381.974 201.097) rotate(18.9365) scale(132.006 82.4915)">
<stop stop-color="#D5A450"/>
<stop offset="0.550605" stop-color="#FDDE83"/>
<stop offset="1" stop-color="#DEB158"/>
</radialGradient>
<radialGradient id="paint4_radial_520_101" cx="0" cy="0" r="1" gradientUnits="userSpaceOnUse" gradientTransform="translate(8.97393 205.266) rotate(17.6791) scale(131.077 77.2106)">
<stop stop-color="#D5A450"/>
<stop offset="0.550605" stop-color="#FDDE83"/>
<stop offset="1" stop-color="#DEB158"/>
</radialGradient>
<radialGradient id="paint5_radial_520_101" cx="0" cy="0" r="1" gradientUnits="userSpaceOnUse" gradientTransform="translate(263.034 298.194) rotate(17.7749) scale(123.42 73.0425)">
<stop stop-color="#D5A450"/>
<stop offset="0.550605" stop-color="#FDDE83"/>
<stop offset="1" stop-color="#DEB158"/>
</radialGradient>
<radialGradient id="paint6_radial_520_101" cx="0" cy="0" r="1" gradientUnits="userSpaceOnUse" gradientTransform="translate(135.034 298.194) rotate(17.7765) scale(123.409 73.0419)">
<stop stop-color="#D5A450"/>
<stop offset="0.550605" stop-color="#FDDE83"/>
<stop offset="1" stop-color="#DEB158"/>
</radialGradient>
<radialGradient id="paint7_radial_520_101" cx="0" cy="0" r="1" gradientUnits="userSpaceOnUse" gradientTransform="translate(263.078 205.355) rotate(19.4931) scale(119.097 76.2696)">
<stop stop-color="#D5A450"/>
<stop offset="0.550605" stop-color="#FDDE83"/>
<stop offset="1" stop-color="#DEB158"/>
</radialGradient>
<radialGradient id="paint8_radial_520_101" cx="0" cy="0" r="1" gradientUnits="userSpaceOnUse" gradientTransform="translate(140.078 205.355) rotate(19.4931) scale(119.097 76.2696)">
<stop stop-color="#D5A450"/>
<stop offset="0.550605" stop-color="#FDDE83"/>
<stop offset="1" stop-color="#DEB158"/>
</radialGradient>
<radialGradient id="paint9_radial_520_101" cx="0" cy="0" r="1" gradientUnits="userSpaceOnUse" gradientTransform="translate(209.207 390.516) rotate(23.4167) scale(105.196 78.1003)">
<stop stop-color="#D5A450"/>
<stop offset="0.550605" stop-color="#FDDE83"/>
<stop offset="1" stop-color="#DEB158"/>
</radialGradient>
<radialGradient id="paint10_radial_520_101" cx="0" cy="0" r="1" gradientUnits="userSpaceOnUse" gradientTransform="translate(376.035 116.944) rotate(17.0299) scale(121.818 69.4471)">
<stop stop-color="#D5A450"/>
<stop offset="0.550605" stop-color="#FDDE83"/>
<stop offset="1" stop-color="#DEB158"/>
</radialGradient>
<radialGradient id="paint11_radial_520_101" cx="0" cy="0" r="1" gradientUnits="userSpaceOnUse" gradientTransform="translate(23.0431 116.86) rotate(17.0584) scale(121.828 69.5546)">
<stop stop-color="#D5A450"/>
<stop offset="0.550605" stop-color="#FDDE83"/>
<stop offset="1" stop-color="#DEB158"/>
</radialGradient>
<radialGradient id="paint12_radial_520_101" cx="0" cy="0" r="1" gradientUnits="userSpaceOnUse" gradientTransform="translate(371.083 28.2223) rotate(19.5481) scale(114.716 73.6382)">
<stop stop-color="#D5A450"/>
<stop offset="0.550605" stop-color="#FDDE83"/>
<stop offset="1" stop-color="#DEB158"/>
</radialGradient>
<radialGradient id="paint13_radial_520_101" cx="0" cy="0" r="1" gradientUnits="userSpaceOnUse" gradientTransform="translate(36.1119 28.4013) rotate(19.4877) scale(114.667 73.4155)">
<stop stop-color="#D5A450"/>
<stop offset="0.550605" stop-color="#FDDE83"/>
<stop offset="1" stop-color="#DEB158"/>
</radialGradient>
<radialGradient id="paint14_radial_520_101" cx="0" cy="0" r="1" gradientUnits="userSpaceOnUse" gradientTransform="translate(263.181 28.4839) rotate(20.965) scale(106.746 72.6074)">
<stop stop-color="#D5A450"/>
<stop offset="0.550605" stop-color="#FDDE83"/>
<stop offset="1" stop-color="#DEB158"/>
</radialGradient>
<radialGradient id="paint15_radial_520_101" cx="0" cy="0" r="1" gradientUnits="userSpaceOnUse" gradientTransform="translate(152.181 28.4839) rotate(20.965) scale(106.746 72.6074)">
<stop stop-color="#D5A450"/>
<stop offset="0.550605" stop-color="#FDDE83"/>
<stop offset="1" stop-color="#DEB158"/>
</radialGradient>
<radialGradient id="paint16_radial_520_101" cx="0" cy="0" r="1" gradientUnits="userSpaceOnUse" gradientTransform="translate(263.129 117.032) rotate(18.5749) scale(111.799 68.7244)">
<stop stop-color="#D5A450"/>
<stop offset="0.550605" stop-color="#FDDE83"/>
<stop offset="1" stop-color="#DEB158"/>
</radialGradient>
<radialGradient id="paint17_radial_520_101" cx="0" cy="0" r="1" gradientUnits="userSpaceOnUse" gradientTransform="translate(146.129 117.032) rotate(18.5749) scale(111.799 68.7244)">
<stop stop-color="#D5A450"/>
<stop offset="0.550605" stop-color="#FDDE83"/>
<stop offset="1" stop-color="#DEB158"/>
</radialGradient>
<clipPath id="clip0_520_101">
<rect width="512" height="512" fill="white"/>
</clipPath>
</defs>
</svg>
