<svg width="512" height="512" viewBox="0 0 512 512" fill="none" xmlns="http://www.w3.org/2000/svg">
<g clip-path="url(#clip0_520_58)">
<path d="M154.813 231.438C155.788 231.395 156.764 231.352 157.77 231.309C165.515 232.966 171.453 240.112 177 245.438C181.618 249.843 186.281 254.159 191.103 258.341C193.912 260.797 196.644 263.332 199.375 265.875C204.038 270.199 208.737 274.478 213.473 278.723C216.331 281.298 219.167 283.897 222 286.5C225.649 289.853 229.312 293.19 233 296.5C237.207 300.275 241.377 304.09 245.539 307.914C248.677 310.794 251.83 313.655 255 316.5C259.207 320.275 263.377 324.09 267.539 327.914C270.677 330.794 273.83 333.655 277 336.5C281.202 340.271 285.368 344.08 289.524 347.901C292.807 350.916 296.115 353.903 299.438 356.875C309.726 366.138 309.726 366.138 310.238 371.488C310.357 375.993 310.322 379.263 308.5 383.438C304.782 387.248 301.122 389.783 295.691 390.16C289.507 389.733 285.393 387.393 281 383C280.998 383.919 280.998 383.919 280.996 384.857C280.959 399.781 280.899 414.704 280.816 429.627C280.776 436.844 280.744 444.061 280.729 451.278C280.716 457.569 280.689 463.86 280.645 470.152C280.623 473.482 280.609 476.812 280.608 480.142C280.606 483.863 280.579 487.583 280.546 491.303C280.551 492.404 280.556 493.504 280.561 494.638C280.48 500.553 280.209 504.463 276 509C272.039 512.182 268.919 512.367 263.915 512.341C263.222 512.341 262.528 512.341 261.814 512.342C259.536 512.34 257.259 512.317 254.98 512.293C253.396 512.287 251.811 512.283 250.226 512.28C246.065 512.269 241.905 512.239 237.744 512.206C233.494 512.175 229.244 512.162 224.994 512.146C216.663 512.114 208.331 512.063 200 512C199.992 510.7 199.984 509.4 199.976 508.061C199.898 495.804 199.81 483.548 199.712 471.292C199.663 464.991 199.616 458.69 199.578 452.389C199.541 446.307 199.495 440.225 199.442 434.143C199.423 431.824 199.408 429.505 199.397 427.186C199.38 423.935 199.351 420.684 199.319 417.433C199.317 416.477 199.315 415.52 199.312 414.534C199.231 408.018 198.946 402.502 194.813 397.188C187.931 391.835 179.772 392.707 171.438 392.734C169.48 392.732 169.48 392.732 167.482 392.729C164.729 392.726 161.975 392.73 159.222 392.739C155.708 392.751 152.195 392.744 148.681 392.732C145.308 392.723 141.935 392.729 138.563 392.734C137.308 392.73 136.054 392.726 134.761 392.722C124.307 392.651 124.307 392.651 115.188 397.188C110.458 403.269 110.698 410.039 110.681 417.433C110.671 418.458 110.661 419.484 110.651 420.54C110.62 423.911 110.603 427.281 110.586 430.652C110.567 432.996 110.548 435.341 110.527 437.685C110.476 443.841 110.436 449.998 110.399 456.155C110.359 462.442 110.308 468.73 110.258 475.018C110.161 487.345 110.077 499.672 110 512C100.846 512.093 91.6931 512.164 82.5391 512.207C78.2883 512.228 74.0378 512.256 69.7871 512.302C65.6828 512.345 61.5788 512.369 57.4742 512.38C55.9105 512.387 54.3469 512.401 52.7833 512.423C50.5881 512.452 48.3941 512.456 46.1987 512.454C44.9508 512.463 43.7028 512.472 42.417 512.481C37.4075 511.776 34.5195 509.666 31.152 505.974C29.3057 501.208 29.5611 496.483 29.5676 491.417C29.5575 490.246 29.5473 489.074 29.5368 487.868C29.5066 483.999 29.4974 480.131 29.4883 476.262C29.4715 473.578 29.4535 470.895 29.4339 468.212C29.3903 461.873 29.3617 455.533 29.3386 449.194C29.3115 441.975 29.2676 434.756 29.2223 427.537C29.1295 412.692 29.0578 397.846 29 383C28.0577 383.797 27.1154 384.593 26.1446 385.414C22.0387 388.885 18.9995 390.239 13.5625 389.875C8.19359 389.107 4.77416 386.952 1.12502 382.938C-0.649903 378.303 -0.623479 373.894 2.09808e-05 369C3.68968 360.979 12.0851 354.693 18.711 349.004C21.6496 346.431 24.5114 343.781 27.375 341.125C32.0392 336.802 36.737 332.522 41.4727 328.277C44.3308 325.702 47.1671 323.103 50 320.5C54.4533 316.408 58.9366 312.352 63.4375 308.312C66.306 305.724 69.1548 303.114 72 300.5C76.4534 296.408 80.9366 292.352 85.4375 288.312C88.306 285.724 91.1548 283.114 94 280.5C98.4534 276.408 102.937 272.352 107.438 268.312C110.306 265.724 113.155 263.114 116 260.5C120.446 256.415 124.919 252.362 129.418 248.336C131.331 246.605 133.228 244.862 135.113 243.102C135.645 242.607 136.177 242.113 136.725 241.604C137.754 240.645 138.78 239.683 139.803 238.717C144.575 234.283 148.172 231.568 154.813 231.438ZM128 338C125.279 342.468 125.349 346.913 126 352C128.193 356.468 130.487 358.909 135 361C140.857 362.477 146.807 362.186 152.81 362.185C154.862 362.187 156.913 362.206 158.965 362.225C160.273 362.227 161.582 362.228 162.93 362.23C164.118 362.235 165.306 362.239 166.531 362.243C171.816 361.873 175.773 361.064 179.813 357.562C183.751 352.949 184.445 350.41 184.316 344.508C183.85 340.808 182.474 338.742 180 336C173.194 330.939 165.312 331.814 157.19 331.815C155.138 331.813 153.087 331.794 151.035 331.775C149.727 331.773 148.418 331.772 147.07 331.77C145.882 331.765 144.694 331.761 143.469 331.757C137.235 332.194 132.52 333.609 128 338Z" fill="url(#paint0_radial_520_58)"/>
<path d="M356.812 -0.5625C357.788 -0.605039 358.764 -0.647578 359.77 -0.691406C367.515 0.966234 373.453 8.11215 379 13.4375C383.618 17.8433 388.281 22.1589 393.103 26.3411C395.912 28.7972 398.644 31.3324 401.375 33.875C406.038 38.1986 410.737 42.4782 415.473 46.7227C418.331 49.2981 421.167 51.8969 424 54.5C427.649 57.8529 431.312 61.19 435 64.5C439.207 68.2754 443.377 72.0898 447.539 75.9141C450.677 78.7942 453.83 81.6553 457 84.5C461.207 88.2754 465.377 92.0898 469.539 95.9141C472.677 98.7942 475.83 101.655 479 104.5C483.202 108.271 487.368 112.08 491.524 115.901C494.807 118.916 498.115 121.903 501.438 124.875C511.726 134.138 511.726 134.138 512.238 139.488C512.357 143.993 512.322 147.263 510.5 151.438C506.782 155.248 503.122 157.783 497.691 158.16C491.507 157.733 487.393 155.393 483 151C482.998 151.919 482.998 151.919 482.996 152.857C482.958 167.781 482.899 182.704 482.816 197.627C482.776 204.844 482.744 212.061 482.729 219.278C482.716 225.569 482.689 231.86 482.645 238.152C482.623 241.482 482.609 244.812 482.608 248.142C482.606 251.863 482.579 255.583 482.546 259.303C482.551 260.404 482.556 261.504 482.561 262.638C482.48 268.553 482.209 272.463 478 277C474.039 280.182 470.919 280.367 465.915 280.341C465.222 280.341 464.528 280.341 463.814 280.342C461.536 280.34 459.259 280.317 456.98 280.293C455.396 280.287 453.811 280.283 452.226 280.28C448.065 280.269 443.905 280.239 439.744 280.206C435.494 280.175 431.244 280.162 426.994 280.146C418.663 280.114 410.331 280.063 402 280C401.992 278.7 401.984 277.4 401.975 276.061C401.898 263.804 401.81 251.548 401.712 239.292C401.663 232.991 401.616 226.69 401.578 220.389C401.541 214.307 401.495 208.225 401.442 202.143C401.423 199.824 401.408 197.505 401.397 195.186C401.38 191.935 401.351 188.684 401.319 185.433C401.317 184.477 401.315 183.52 401.312 182.534C401.231 176.018 400.946 170.502 396.812 165.188C389.931 159.835 381.772 160.707 373.438 160.734C371.48 160.732 371.48 160.732 369.482 160.729C366.729 160.726 363.975 160.73 361.222 160.739C357.708 160.751 354.195 160.744 350.681 160.732C347.308 160.723 343.935 160.729 340.562 160.734C339.308 160.73 338.054 160.726 336.761 160.722C326.307 160.651 326.307 160.651 317.188 165.188C312.458 171.269 312.698 178.039 312.681 185.433C312.671 186.458 312.661 187.484 312.651 188.54C312.62 191.911 312.603 195.281 312.586 198.652C312.567 200.996 312.548 203.341 312.527 205.685C312.476 211.841 312.436 217.998 312.399 224.155C312.359 230.442 312.308 236.73 312.258 243.018C312.161 255.345 312.077 267.672 312 280C302.846 280.093 293.693 280.164 284.539 280.207C280.288 280.228 276.038 280.256 271.787 280.302C267.683 280.345 263.579 280.369 259.474 280.38C257.911 280.387 256.347 280.401 254.783 280.423C252.588 280.452 250.394 280.456 248.199 280.454C246.951 280.463 245.703 280.472 244.417 280.481C239.407 279.776 236.52 277.666 233.152 273.974C231.306 269.208 231.561 264.483 231.568 259.417C231.557 258.246 231.547 257.074 231.537 255.868C231.507 251.999 231.497 248.131 231.488 244.262C231.471 241.578 231.453 238.895 231.434 236.212C231.39 229.873 231.362 223.533 231.339 217.194C231.312 209.975 231.268 202.756 231.222 195.537C231.129 180.692 231.058 165.846 231 151C230.058 151.797 229.115 152.593 228.145 153.414C224.039 156.885 220.999 158.239 215.563 157.875C210.194 157.107 206.774 154.952 203.125 150.938C201.35 146.303 201.377 141.894 202 137C205.69 128.979 214.085 122.693 220.711 117.004C223.65 114.431 226.511 111.781 229.375 109.125C234.039 104.802 238.737 100.522 243.473 96.2773C246.331 93.7019 249.167 91.1031 252 88.5C256.453 84.4083 260.937 80.3518 265.438 76.3125C268.306 73.7239 271.155 71.1141 274 68.5C278.453 64.4083 282.937 60.3518 287.438 56.3125C290.306 53.7239 293.155 51.1141 296 48.5C300.453 44.4083 304.937 40.3518 309.438 36.3125C312.306 33.7239 315.155 31.1141 318 28.5C322.446 24.4151 326.919 20.3624 331.418 16.3359C333.331 14.605 335.228 12.862 337.113 11.1016C337.645 10.6072 338.177 10.1129 338.725 9.60352C339.754 8.64495 340.78 7.68291 341.803 6.7168C346.575 2.28262 350.172 -0.43196 356.812 -0.5625ZM330 106C327.279 110.468 327.349 114.913 328 120C330.193 124.468 332.487 126.909 337 129C342.857 130.477 348.807 130.186 354.81 130.185C356.862 130.187 358.913 130.206 360.965 130.225C362.273 130.227 363.582 130.228 364.93 130.23C366.118 130.235 367.306 130.239 368.531 130.243C373.816 129.873 377.773 129.064 381.812 125.562C385.751 120.949 386.445 118.41 386.316 112.508C385.85 108.808 384.474 106.742 382 104C375.194 98.9393 367.312 99.8137 359.19 99.8147C357.138 99.8125 355.087 99.7943 353.035 99.7754C351.727 99.7735 350.418 99.7715 349.07 99.7695C347.882 99.7654 346.694 99.7613 345.469 99.7571C339.235 100.194 334.52 101.609 330 106Z" fill="url(#paint1_radial_520_58)"/>
<path d="M101.288 -0.403814C103.024 -0.409524 104.759 -0.416491 106.495 -0.424611C111.183 -0.442475 115.87 -0.441388 120.558 -0.435669C124.477 -0.43257 128.396 -0.438677 132.316 -0.444708C141.56 -0.458727 150.803 -0.457211 160.047 -0.445806C169.578 -0.434306 179.109 -0.448437 188.639 -0.475202C196.834 -0.497353 205.029 -0.503999 213.223 -0.498126C218.113 -0.494756 223.002 -0.497174 227.892 -0.514377C232.485 -0.529835 237.078 -0.525903 241.671 -0.507072C243.355 -0.503384 245.04 -0.506501 246.724 -0.516958C249.025 -0.530154 251.325 -0.518634 253.626 -0.500966C255.556 -0.500652 255.556 -0.500652 257.525 -0.500332C262.571 0.226524 265.743 2.38144 268.848 6.37915C270.936 11.1285 270.619 15.9227 270 21.0002C267.819 25.6043 265.52 27.7723 261 30.0002C257.817 30.3794 257.817 30.3794 254.157 30.3855C253.482 30.3907 252.806 30.396 252.109 30.4014C249.852 30.4153 247.595 30.408 245.337 30.4009C243.715 30.4066 242.094 30.4137 240.472 30.422C236.983 30.4371 233.493 30.4429 230.004 30.4415C224.481 30.4395 218.959 30.459 213.436 30.4817C202.704 30.5226 191.973 30.5412 181.24 30.5578C167.595 30.5802 153.949 30.6138 140.303 30.665C134.819 30.6849 129.334 30.6945 123.85 30.696C120.43 30.6988 117.009 30.7096 113.589 30.7225C112.009 30.7268 110.43 30.7277 108.85 30.7248C92.3133 30.5593 92.3133 30.5593 78 38.0002C70.3768 46.8618 70.711 57.8765 70.773 68.9653C70.7735 70.3558 70.7732 71.7463 70.7721 73.1367C70.7715 76.8861 70.7832 80.6354 70.7972 84.3848C70.8098 88.3125 70.8109 92.2403 70.8133 96.1681C70.8195 103.595 70.8359 111.021 70.856 118.447C70.8784 126.907 70.8893 135.366 70.8994 143.826C70.9202 161.217 70.9554 178.609 71 196C71.8804 195.097 72.7609 194.193 73.668 193.262C74.8409 192.07 76.0141 190.879 77.1875 189.688C77.7657 189.093 78.3438 188.498 78.9395 187.885C86.3437 180.397 86.3437 180.397 91.9024 179.567C98.0507 179.559 102.313 179.554 107 184C109.599 187.667 110.474 190.325 110.563 194.813C110.626 196.276 110.626 196.276 110.691 197.77C108.941 205.95 101.001 212.294 95.2774 217.989C94.4542 218.814 93.6311 219.639 92.7831 220.489C91.0534 222.22 89.3212 223.948 87.5867 225.674C84.935 228.315 82.2942 230.967 79.6543 233.619C77.9668 235.306 76.2787 236.991 74.5899 238.676C73.8033 239.467 73.0167 240.257 72.2063 241.072C71.4652 241.807 70.7242 242.541 69.9607 243.298C68.9919 244.265 68.9919 244.265 68.0035 245.251C63.9158 248.82 60.6319 250.456 55.1875 250.563C53.7238 250.627 53.7238 250.627 52.2305 250.692C44.0504 248.941 37.7061 241.002 32.0117 235.278C31.1867 234.454 30.3617 233.631 29.5117 232.783C27.7806 231.054 26.0521 229.321 24.3259 227.587C21.685 224.935 19.0335 222.294 16.3809 219.655C14.6947 217.967 13.0091 216.279 11.3242 214.59C10.5336 213.804 9.74298 213.017 8.9284 212.207C8.19366 211.465 7.45892 210.724 6.70191 209.961C6.05764 209.315 5.41336 208.669 4.74957 208.004C0.137897 202.723 -0.536923 198.742 -0.351554 191.883C0.124528 187.979 1.30309 185.843 4.00001 183C9.45692 179.132 14.5043 178.99 21 180C26.3227 182.403 30.1801 187.151 34.2422 191.227C35.1354 192.122 36.0285 193.018 36.9487 193.94C37.6257 194.62 38.3026 195.3 39 196C39.0015 195.228 39.0029 194.456 39.0045 193.66C39.0416 174.829 39.1007 155.998 39.1839 137.167C39.2236 128.06 39.2561 118.954 39.271 109.847C39.2841 101.905 39.3111 93.9638 39.3546 86.0223C39.3772 81.8211 39.3929 77.6201 39.3919 73.4188C39.3911 69.4558 39.4092 65.4934 39.4412 61.5306C39.4496 60.0843 39.4515 58.638 39.4458 57.1918C39.3916 41.1591 44.0436 27.1908 55.0625 15.2502C68.5369 2.60367 83.4036 -0.457126 101.288 -0.403814Z" fill="url(#paint2_radial_520_58)"/>
<path d="M456.812 311.438C457.788 311.395 458.764 311.352 459.77 311.309C467.95 313.059 474.294 320.999 479.988 326.723C480.813 327.546 481.638 328.369 482.488 329.217C484.219 330.947 485.948 332.679 487.674 334.413C490.315 337.065 492.966 339.706 495.619 342.346C497.305 344.033 498.991 345.721 500.676 347.41C501.466 348.197 502.257 348.983 503.072 349.794C503.806 350.535 504.541 351.276 505.298 352.039C505.942 352.685 506.587 353.331 507.25 353.996C511.862 359.278 512.537 363.259 512.352 370.117C511.875 374.021 510.697 376.157 508 379C502.543 382.868 497.496 383.01 491 382C485.677 379.598 481.82 374.849 477.758 370.773C476.865 369.878 475.971 368.983 475.051 368.06C474.374 367.38 473.697 366.7 473 366C472.996 367.251 472.993 368.502 472.989 369.792C472.952 381.62 472.894 393.448 472.816 405.276C472.777 411.356 472.744 417.436 472.729 423.516C472.714 429.39 472.679 435.264 472.632 441.139C472.617 443.373 472.609 445.607 472.608 447.841C472.591 470.279 472.591 470.279 468 480C467.47 481.149 466.94 482.297 466.395 483.48C458.091 497.688 446.561 506.751 430.765 511.366C426.22 512.408 421.783 512.426 417.138 512.404C416.102 512.411 415.067 512.418 414 512.425C410.609 512.443 407.219 512.439 403.828 512.434C401.458 512.438 399.088 512.443 396.717 512.449C391.765 512.458 386.812 512.456 381.86 512.446C375.516 512.435 369.172 512.455 362.828 512.484C357.94 512.502 353.052 512.502 348.163 512.496C345.824 512.496 343.484 512.502 341.145 512.515C337.878 512.529 334.612 512.519 331.345 512.502C329.9 512.516 329.9 512.516 328.426 512.531C322.636 512.467 319.436 511.804 315 508C310.944 502.777 311.226 497.347 312 491C314.173 486.413 316.44 484.134 321 482C324.08 481.564 327.131 481.583 330.237 481.599C331.16 481.592 332.083 481.585 333.033 481.578C336.079 481.558 339.125 481.559 342.172 481.559C344.296 481.547 346.419 481.533 348.543 481.519C354.135 481.482 359.728 481.462 365.321 481.447C374.258 481.422 383.194 481.382 392.131 481.325C395.245 481.309 398.358 481.305 401.472 481.302C403.396 481.292 405.321 481.282 407.245 481.271C408.103 481.274 408.96 481.276 409.843 481.279C419.429 481.198 427.736 479.617 435 473C440.871 465.312 441.154 457.19 441.114 447.852C441.114 446.519 441.114 446.519 441.114 445.159C441.113 442.243 441.105 439.326 441.098 436.41C441.096 434.38 441.094 432.35 441.093 430.319C441.09 424.991 441.08 419.663 441.069 414.335C441.058 408.892 441.054 403.449 441.049 398.006C441.038 387.337 441.021 376.669 441 366C440.12 366.904 439.239 367.807 438.332 368.738C437.159 369.93 435.986 371.121 434.812 372.312C434.234 372.907 433.656 373.502 433.061 374.115C425.656 381.603 425.656 381.603 420.098 382.434C413.949 382.442 409.687 382.447 405 378C402.401 374.334 401.526 371.675 401.437 367.188C401.374 365.724 401.374 365.724 401.309 364.23C403.059 356.05 410.999 349.706 416.723 344.012C417.546 343.187 418.369 342.362 419.217 341.512C420.947 339.781 422.679 338.052 424.413 336.326C427.065 333.685 429.706 331.034 432.346 328.381C434.033 326.695 435.721 325.009 437.41 323.324C438.197 322.534 438.983 321.743 439.794 320.928C440.535 320.194 441.276 319.459 442.039 318.702C442.685 318.058 443.331 317.413 443.996 316.75C448.084 313.18 451.368 311.545 456.812 311.438Z" fill="url(#paint3_radial_520_58)"/>
<path d="M140 422C149.9 422 159.8 422 170 422C170 451.7 170 481.4 170 512C160.1 512 150.2 512 140 512C140 482.3 140 452.6 140 422Z" fill="url(#paint4_radial_520_58)"/>
<path d="M342 190C351.9 190 361.8 190 372 190C372 219.7 372 249.4 372 280C362.1 280 352.2 280 342 280C342 250.3 342 220.6 342 190Z" fill="url(#paint5_radial_520_58)"/>
</g>
<defs>
<radialGradient id="paint0_radial_520_58" cx="0" cy="0" r="1" gradientUnits="userSpaceOnUse" gradientTransform="translate(-3.06421 312.939) rotate(23.9987) scale(356.812 269.9)">
<stop stop-color="#D5A450"/>
<stop offset="0.550605" stop-color="#FDDE83"/>
<stop offset="1" stop-color="#DEB158"/>
</radialGradient>
<radialGradient id="paint1_radial_520_58" cx="0" cy="0" r="1" gradientUnits="userSpaceOnUse" gradientTransform="translate(198.936 80.9393) rotate(23.9987) scale(356.812 269.9)">
<stop stop-color="#D5A450"/>
<stop offset="0.550605" stop-color="#FDDE83"/>
<stop offset="1" stop-color="#DEB158"/>
</radialGradient>
<radialGradient id="paint2_radial_520_58" cx="0" cy="0" r="1" gradientUnits="userSpaceOnUse" gradientTransform="translate(-2.71335 72.4096) rotate(24.5249) scale(312.366 240.148)">
<stop stop-color="#D5A450"/>
<stop offset="0.550605" stop-color="#FDDE83"/>
<stop offset="1" stop-color="#DEB158"/>
</radialGradient>
<radialGradient id="paint3_radial_520_58" cx="0" cy="0" r="1" gradientUnits="userSpaceOnUse" gradientTransform="translate(309.801 369.728) rotate(26.2349) scale(234.942 189.653)">
<stop stop-color="#D5A450"/>
<stop offset="0.550605" stop-color="#FDDE83"/>
<stop offset="1" stop-color="#DEB158"/>
</radialGradient>
<radialGradient id="paint4_radial_520_58" cx="0" cy="0" r="1" gradientUnits="userSpaceOnUse" gradientTransform="translate(139.741 448.129) rotate(55.8766) scale(56.1124 53.0498)">
<stop stop-color="#D5A450"/>
<stop offset="0.550605" stop-color="#FDDE83"/>
<stop offset="1" stop-color="#DEB158"/>
</radialGradient>
<radialGradient id="paint5_radial_520_58" cx="0" cy="0" r="1" gradientUnits="userSpaceOnUse" gradientTransform="translate(341.741 216.129) rotate(55.8766) scale(56.1124 53.0498)">
<stop stop-color="#D5A450"/>
<stop offset="0.550605" stop-color="#FDDE83"/>
<stop offset="1" stop-color="#DEB158"/>
</radialGradient>
<clipPath id="clip0_520_58">
<rect width="512" height="512" fill="white"/>
</clipPath>
</defs>
</svg>
